<?xml version="1.0" ?><!DOCTYPE svg  PUBLIC '-//W3C//DTD SVG 1.1//EN'  'http://www.w3.org/Graphics/SVG/1.1/DTD/svg11.dtd'><svg enable-background="new 0 0 128 128" id="Слой_1" version="1.1" viewBox="0 0 128 128" xml:space="preserve" xmlns="http://www.w3.org/2000/svg" xmlns:xlink="http://www.w3.org/1999/xlink"><g><path d="M64,109.3c19.5,0,39.1-3.3,57.7-9.8l1.3-0.5V86.1l-7-2v-8.5c0-20-11.5-38.2-29.5-46.9v-2.1c0-3.9-3.1-7-7-7   H66v-4h-4v4H48.5c-3.9,0-7,3.1-7,7v2.1C23.5,37.4,12,55.7,12,75.6v8.5l-7,2v12.9l1.3,0.5C24.9,106.1,44.5,109.3,64,109.3z M9,89.2   l7-2V75.6c0-17.8,9.9-34.1,25.5-42.4v18.4h4v-25c0-1.7,1.3-3,3-3H62v42h4v-42h13.5c1.7,0,3,1.3,3,3v25h4V33.2   c15.6,8.3,25.5,24.6,25.5,42.4v11.5l7,2v7.1c-35.5,12.1-74.5,12.1-110,0V89.2z" fill="#3EBBC4"/><rect fill="#3EBBC4" height="4" width="70" x="29" y="83.6"/></g></svg>