<?xml version="1.0" ?><svg id="katman_1" style="enable-background:new 0 0 512 512;" version="1.1" viewBox="0 0 512 512" xml:space="preserve" xmlns="http://www.w3.org/2000/svg" xmlns:xlink="http://www.w3.org/1999/xlink"><style type="text/css">
	.st0{fill:#34B297;}
	.st1{fill:#15A085;}
	.st2{fill:#FFFFFF;}
</style><g><g><circle class="st0" cx="256" cy="256" r="250"/></g><path class="st1" d="M506,259.7c-0.2-0.3-0.4-0.5-0.7-0.8c-36-35.9-71.9-71.8-107.8-107.7c-1.1-1.1-2.2-2.1-3.3-3.1   c-7.8-6.5-17-9.1-27-8.1c-8.5,0.9-15.8,4.7-21.9,10.8c-43,43.1-86.1,86.1-129.1,129.2c-2.1,2-1.5,2.1-3.6,0   c-14.8-14.8-29.6-29.7-44.5-44.4c-9.6-9.5-21.2-12.7-34.3-9.7c-15,3.4-26.4,17.4-27,32.8c-0.4,10.9,3.4,20.1,11.1,27.8   C187.3,356,256.8,425.5,326.2,495c0.3,0.3,0.6,0.6,0.9,0.7C429.4,465.4,504.3,371.5,506,259.7z"/><path class="st2" d="M213.5,372.6c-6,0-12.1-2.3-16.7-6.9l-80.4-80.4c-13.9-13.9-13.9-36.5,0-50.4c13.9-13.9,36.5-13.9,50.4,0   l46.7,46.7l131.7-131.7l0,0c13.9-13.9,36.5-13.9,50.4,0c13.9,13.9,13.9,36.5,0,50.4L230.2,365.6   C225.6,370.3,219.6,372.6,213.5,372.6z M141.6,242.7c-4.4,0-8.9,1.7-12.3,5.1c-6.8,6.8-6.8,17.8,0,24.6l80.4,80.4   c2.1,2.1,5.5,2.1,7.6,0l165.4-165.4c6.8-6.8,6.8-17.8,0-24.6c-6.8-6.8-17.8-6.8-24.6,0l-133,133c-3.1,3.1-7.2,4.8-11.6,4.8   c-4.4,0-8.5-1.7-11.6-4.8l-48-48C150.5,244.4,146.1,242.7,141.6,242.7z"/></g></svg>