<?xml version="1.0" encoding="UTF-8" standalone="no"?>
<svg width="32px" height="32px" viewBox="0 0 32 32" version="1.1" xmlns="http://www.w3.org/2000/svg" xmlns:xlink="http://www.w3.org/1999/xlink">
    <!-- Generator: Sketch 44.1 (41455) - http://www.bohemiancoding.com/sketch -->
    <title>Chat 10</title>
    <desc>Created with Sketch.</desc>
    <defs></defs>
    <g id="Page-2-Copy" stroke="none" stroke-width="1" fill="none" fill-rule="evenodd">
        <g id="144" stroke="#979797" fill-rule="nonzero" fill="#95909E">
            <path d="M13.3904869,24.8725111 C13.9113622,24.956405 14.4457154,25 14.9902536,25 L18.0422722,25 L17.3425982,24.7144623 L24.4905508,31.7144623 C25.0931162,32.3045554 26.1106233,31.9296028 26.1862014,31.089613 L26.8956482,23.2046834 L26.3335946,24.0160203 C29.7675353,22.3621368 32,18.8812199 32,15 C32,12.7214871 31.2389388,10.6210944 29.9573502,8.93961313 L29.9573502,8.93961313 C29.9856,9.28934865 30,9.64299375 30,10 C30,10.963927 29.8951608,11.9033047 29.6962679,12.8073562 C29.8941016,13.5041046 30,14.2396419 30,15 C30,18.1056692 28.2139651,20.8905011 25.4657484,22.2141204 C25.1486861,22.3668267 24.9352315,22.6749532 24.9036949,23.0254573 L24.1942481,30.910387 L25.8898987,30.2855377 L18.7419461,23.2855377 C18.5550465,23.1025067 18.3038669,23 18.0422722,23 L15.9967137,23 L15.262998,23 L13.3904869,24.8725111 L13.3904869,24.8725111 L13.3904869,24.8725111 Z M2,10.3645656 C2,5.74396169 5.73273586,2 10.3376559,2 L17.6623441,2 C22.2631978,2 26,5.7467735 26,10.3645656 C26,14.9851695 22.2672641,18.7291312 17.6623441,18.7291312 L14.477629,18.7291312 C14.2046606,18.7291312 13.9425601,18.8363091 13.7475345,19.027681 L6.28880135,26.3466759 L8.05817588,27 L7.31788363,18.7557486 C7.28497585,18.3892717 7.06224063,18.0671037 6.73139295,17.9074385 C3.86368856,16.523501 2,13.6117623 2,10.3645656 L2,10.3645656 L2,10.3645656 Z M5.29340189,18.877954 L6.02912444,27.0544949 C6.10750173,27.9255503 7.16269435,28.31437 7.78757691,27.7024533 L15.2002685,20.4435696 L14.4746807,20.7396675 L17.6397371,20.7396675 C23.3621755,20.7396675 28,16.0974447 28,10.3698337 C28,4.64485466 23.3579772,0 17.6397371,0 L10.3602629,0 C4.63782448,0 0,4.64222274 0,10.3698337 C0,14.3945942 2.31514861,18.0042472 5.87627226,19.7192969 L5.29340189,18.877954 L5.29340189,18.877954 Z" id="Rectangle-728" stroke="none"></path>
        </g>
    </g>
</svg>