<?xml version="1.0" ?><!DOCTYPE svg  PUBLIC '-//W3C//DTD SVG 1.1//EN'  'http://www.w3.org/Graphics/SVG/1.1/DTD/svg11.dtd'><svg enable-background="new 0 0 512 512" id="Layer_1" version="1.1" viewBox="0 0 512 512" xml:space="preserve" xmlns="http://www.w3.org/2000/svg" xmlns:xlink="http://www.w3.org/1999/xlink"><g id="Layer_1_1_"><circle cx="256" cy="256" fill="#BC2A8D" r="238.2"/></g><g id="Layer_2_1_"><g><path d="M385.1,258c0,18.2,0,36.5,0,54.7c0,30.9-15,52.3-41.9,66.2c-11,5.7-22.9,8.2-35.3,8.2    c-35.1,0-70.3,0.6-105.4-0.2c-28.2-0.6-50.9-13-66.1-37.3c-6.3-10.2-9.4-21.4-9.5-33.3c0-38.5-0.2-77.1,0-115.6    c0.2-26.4,13.1-45.9,35-59.7c13-8.1,27.4-11.8,42.7-11.9c34.2,0,68.3-0.2,102.6,0c26.4,0.2,48.3,10.5,64.5,31.7    c8.9,11.7,13.3,25.3,13.3,40.1C385.1,219.8,385.1,238.9,385.1,258z M365.9,258.2c0-19.1,0-38.4,0-57.5c0-10.4-3.1-19.9-9.2-28.1    c-11.9-16.1-28.4-24-48.1-24.2c-34.7-0.4-69.4-0.1-104.1-0.1c-10.8,0-21,2.5-30.3,7.9c-18,10.4-28,25.6-27.9,46.8    c0.1,37.3,0,74.8,0,112.2c0,10.5,3.1,20.1,9.3,28.4c11.9,16.1,28.4,23.9,48.1,24.1c34.9,0.4,69.8,0.1,104.6,0.1    c7.9,0,15.6-1.7,23-4.7c19.6-7.9,35.3-26.2,34.7-50.6C365.5,294.4,365.9,276.3,365.9,258.2z" fill="#FFFFFF"/><path d="M256,313.1c-33.7-0.1-60.6-27-60.5-60.5c0.1-32.7,27.5-59.3,60.9-59.2c33.4,0.1,60.5,27.1,60.4,60.2    C316.8,286.5,289.6,313.2,256,313.1z M256.5,212.6c-22.9,0-41.4,18.1-41.6,40.5c0,22.3,18.5,40.6,41.1,40.7    c22.9,0,41.6-18.1,41.7-40.4C297.7,231,279.2,212.6,256.5,212.6z" fill="#FFFFFF"/><path d="M336.7,188.5c0,7.3-5.8,13.3-12.9,13.2c-7,0-12.7-6.1-12.6-13.4c0-7.2,5.8-13.1,12.8-13.1    C331,175.2,336.7,181.2,336.7,188.5z" fill="#FFFFFF"/></g></g></svg>