<?xml version="1.0" ?><!DOCTYPE svg  PUBLIC '-//W3C//DTD SVG 1.1//EN'  'http://www.w3.org/Graphics/SVG/1.1/DTD/svg11.dtd'><svg id="Layer_1" style="enable-background:new 0 0 64 64;" version="1.1" viewBox="0 0 64 64" xml:space="preserve" xmlns="http://www.w3.org/2000/svg" xmlns:xlink="http://www.w3.org/1999/xlink"><style type="text/css">
	.st0{fill:#282828;}
</style><g><path class="st0" d="M42.3,37.5h-9v-6.4c0.6,0.2,1.4,0.3,2.3,0.3c0.9,0,2-0.1,3-0.6c2.1-0.9,3.7-2.7,4.6-5.4    c0.2-0.5-0.1-1.1-0.6-1.3c-2.6-1-5-1-7,0.1c-1,0.5-1.7,1.1-2.4,1.8v-4.9c0.3,0.2,0.7,0.3,1.1,0.3c0.6,0,1.3-0.2,2.1-0.7    c1.3-0.8,1.9-1.7,1.8-2.8c-0.1-0.6-0.4-1.1-0.8-1.5c0.4,0,0.8-0.2,1.1-0.4c0.8-0.6,1.1-1.7,0.8-3.2c-0.3-1.5-0.9-2.4-1.9-2.7    c-0.7-0.2-1.4,0-2.1,0.4c0.1-0.6,0.1-1.2-0.1-1.7c-0.4-0.9-1.4-1.4-3-1.4c-1.5,0-2.5,0.5-3,1.4c-0.2,0.5-0.3,1.1-0.1,1.6    c-0.3-0.2-0.6-0.3-1-0.4c-1-0.1-1.9,0.5-2.7,1.9c-0.8,1.3-0.9,2.4-0.3,3.3c0.5,0.7,1.3,1,2.1,1.1c-0.5,0.5-0.9,1-0.9,1.7    c-0.1,1,0.6,1.9,1.9,2.7c0.8,0.4,1.4,0.6,2,0.6c0.4,0,0.7-0.1,1.1-0.3v10c-0.7-0.9-1.7-1.8-3-2.4c-2-0.9-4.4-0.9-7,0.2    c-0.5,0.2-0.8,0.8-0.5,1.3c1.1,2.6,2.7,4.4,4.8,5.2c0.9,0.3,1.8,0.5,2.7,0.5c1.2,0,2.3-0.3,3-0.5v2h-9c-0.3,0-0.6,0.1-0.7,0.3    s-0.3,0.5-0.3,0.8l1.7,17c0.1,0.5,0.5,0.9,1,0.9h16.5c0.5,0,0.9-0.4,1-0.9l1.7-17c0-0.3-0.1-0.6-0.3-0.8S42.6,37.5,42.3,37.5z     M36.5,26.1c1.3-0.6,2.7-0.7,4.4-0.3c-0.8,1.6-1.8,2.7-3.1,3.2c-1.6,0.7-3.2,0.4-4.2,0.2C34.1,28.2,35,26.8,36.5,26.1z M26.3,33.7    c-1.3-0.5-2.4-1.5-3.2-3.1c1.6-0.5,3.1-0.5,4.4,0.1c1.6,0.7,2.5,2.1,3,3C29.5,34,27.9,34.3,26.3,33.7z M33.3,14.5c0,0.6-0.4,1-1,1    c-0.6,0-1-0.4-1-1s0.4-1,1-1C32.8,13.5,33.3,13.9,33.3,14.5z M35.4,19.1c-0.7,0.5-1.1,0.4-1.1,0.4c-0.3-0.2-0.4-1.3-0.3-2.3    c0-0.1,0-0.1,0-0.2c0.1,0,0.1-0.1,0.2-0.2c0.1,0,0.1,0.1,0.2,0.1c0.9,0.3,1.9,1,1.9,1.3C36.3,18.3,36.2,18.6,35.4,19.1z M37,12.1    c0.1,0,0.3,0.2,0.5,1.1c0.2,0.9,0,1.2,0,1.2c-0.3,0.2-1.3-0.1-2.2-0.5c0-0.2-0.1-0.4-0.1-0.5C35.7,12.7,36.7,12.1,37,12.1z     M31.1,9.8c0-0.1,0.3-0.3,1.2-0.3c0.9,0,1.1,0.2,1.2,0.3c0.1,0.3-0.2,1.1-0.7,1.8c-0.2,0-0.3,0-0.5,0s-0.3,0-0.5,0    C31.3,10.8,31,10,31.1,9.8z M27.2,13c0.4-0.8,0.8-0.9,0.8-0.9c0.3,0,1,0.9,1.3,1.9c0,0.1,0,0.3,0,0.4c-0.1,0-0.1,0-0.2,0    c-1,0.1-2.1,0-2.3-0.3C26.8,14.1,26.8,13.8,27.2,13z M30.3,19.5c0,0-0.4,0.1-1.1-0.4c-0.8-0.4-0.9-0.7-0.9-0.8c0-0.3,1-1,1.9-1.4    c0.1,0,0.2-0.1,0.2-0.1c0.1,0,0.1,0.1,0.2,0.1c0,0.1,0,0.2,0,0.2C30.7,18.1,30.6,19.3,30.3,19.5z M41.2,39.5L39.9,52H24.7    l-1.3-12.5H41.2z M24.9,54.5L24.8,53h15l-0.2,1.5H24.9z"/></g></svg>