<?xml version="1.0" ?><svg enable-background="new 0 0 64 64" id="Слой_1" version="1.1" viewBox="0 0 64 64" xml:space="preserve" xmlns="http://www.w3.org/2000/svg" xmlns:xlink="http://www.w3.org/1999/xlink"><g id="row_4"><g id="window"><path d="M47,9c-9.1-6-20.9-6-30,0v48h30V9z" fill="#CFD8DC"/><g><path d="M44,10.6c-3.6-2.1-7.8-3.1-12-3.1c-4.2,0-8.4,1.1-12,3.1V32h24V10.6z" fill="#ECEFF1"/><path d="M22,29V11.8c3.1-1.5,6.5-2.3,10-2.3c3.5,0,6.9,0.8,10,2.3V29H22z" fill="#81D4FA"/><rect fill="#B0BEC5" height="22" width="24" x="20" y="32"/><rect fill="#4FC3F7" height="20" width="20" x="22" y="32"/><rect fill="#ECEFF1" height="19.5" width="2" x="31" y="9.5"/><rect fill="#CFD8DC" height="20" width="2" x="31" y="32"/></g><rect fill="#ECEFF1" height="4" width="34" x="15" y="57"/><g><path d="M47,9v48h15V4.5C56.8,4.5,51.5,6,47,9z" fill="#3E2723"/><path d="M17,9C12.5,6,7.2,4.5,2,4.5V57h15V9z" fill="#3E2723"/></g><g><g><rect fill="#8D6E63" height="23" width="11" x="4" y="32"/><rect fill="#8D6E63" height="20" width="11" x="4" y="10"/></g><g><rect fill="#8D6E63" height="23" width="11" x="49" y="32"/><rect fill="#8D6E63" height="20" width="11" x="49" y="10"/></g></g></g></g></svg>