<?xml version="1.0" standalone="no"?>
<!DOCTYPE svg PUBLIC "-//W3C//DTD SVG 20010904//EN"
 "http://www.w3.org/TR/2001/REC-SVG-20010904/DTD/svg10.dtd">
<svg version="1.0" xmlns="http://www.w3.org/2000/svg"
 width="1280.000000pt" height="654.000000pt" viewBox="0 0 1280.000000 654.000000"
 preserveAspectRatio="xMidYMid meet">
<g transform="translate(0.000000,654.000000) scale(0.100000,-0.100000)"
fill="#ffffff" stroke="none">
<path d="M10779 6536 c-3 -3 -40 -12 -84 -21 -330 -68 -590 -330 -686 -693
-27 -99 -37 -312 -19 -420 36 -229 141 -427 305 -581 38 -35 64 -66 59 -71 -5
-5 -62 -20 -127 -35 -267 -60 -581 -194 -777 -332 -106 -75 -286 -251 -340
-331 -19 -28 -42 -52 -51 -52 -38 0 -131 24 -135 35 -3 7 23 39 57 71 127 121
221 277 276 459 25 83 27 104 27 275 1 214 -13 283 -90 449 -54 116 -112 197
-200 282 -161 153 -323 225 -534 236 -236 13 -442 -69 -621 -247 -127 -125
-215 -283 -262 -470 -31 -122 -31 -368 0 -490 48 -192 133 -341 271 -478 46
-46 80 -88 76 -92 -5 -5 -54 -19 -109 -30 -136 -30 -327 -92 -463 -152 -103
-46 -117 -50 -165 -44 -89 11 -89 15 5 107 186 182 283 402 295 670 15 323
-87 585 -309 795 -94 88 -211 156 -338 196 -64 20 -96 23 -220 23 -124 0 -156
-3 -220 -23 -307 -97 -528 -338 -622 -680 -18 -64 -22 -106 -22 -252 0 -151 3
-186 22 -257 53 -194 134 -337 269 -471 46 -45 81 -86 79 -91 -3 -5 -36 -14
-73 -21 -97 -18 -260 -65 -370 -106 l-94 -35 -94 89 c-237 227 -610 409 -995
487 -47 9 -89 20 -93 25 -5 4 29 45 75 91 97 96 166 197 213 307 148 352 97
762 -131 1051 -318 402 -863 443 -1227 92 -89 -85 -146 -166 -201 -282 -75
-159 -91 -234 -91 -444 0 -210 15 -284 90 -444 57 -118 113 -197 209 -290 42
-41 73 -78 69 -82 -4 -4 -52 -18 -107 -29 -119 -26 -317 -89 -428 -135 -45
-19 -85 -32 -90 -27 -4 4 -2 27 4 52 6 25 11 115 11 200 0 134 -4 168 -26 252
-49 187 -138 342 -267 468 -93 91 -203 158 -330 202 -89 30 -104 32 -235 33
-168 0 -227 -13 -370 -85 -316 -157 -508 -487 -508 -875 0 -288 91 -510 291
-717 62 -64 90 -99 81 -102 -8 -3 -75 -19 -149 -37 -411 -97 -743 -275 -980
-526 -159 -168 -243 -328 -289 -548 -21 -97 -21 -121 -21 -1237 l0 -1138 1873
0 c1029 0 1902 -3 1939 -7 l68 -6 2 384 3 384 402 3 403 2 0 -210 c0 -159 3
-212 13 -215 6 -3 877 -6 1934 -7 l1922 -3 3 100 3 100 898 3 897 2 0 344 c0
190 3 351 6 360 6 14 122 16 1220 16 l1214 0 0 1138 c0 1116 0 1140 -21 1237
-46 218 -130 379 -283 542 -150 158 -287 257 -516 367 -158 76 -325 133 -500
171 -69 15 -129 31 -133 35 -5 4 32 47 80 96 135 135 218 283 265 471 32 127
32 369 0 496 -46 184 -130 336 -257 463 -133 134 -264 205 -450 243 -91 19
-195 27 -206 17z m237 -141 c192 -49 368 -189 475 -380 238 -424 89 -1001
-314 -1216 -50 -26 -58 -34 -53 -53 3 -11 6 -31 6 -43 0 -35 24 -50 95 -57 36
-4 110 -16 163 -26 662 -135 1140 -489 1264 -935 l23 -80 3 -1090 c1 -600 0
-1100 -3 -1112 l-5 -23 -1208 -2 -1207 -3 -5 -355 -5 -355 -897 -3 -898 -2 0
-93 c0 -50 -4 -98 -8 -105 -7 -10 -377 -12 -1818 -10 l-1809 3 -5 215 -5 215
-520 0 -520 0 -3 -377 -2 -378 -1815 0 -1815 0 -5 22 c-3 13 -4 513 -3 1113
l3 1090 23 80 c28 102 97 241 162 326 109 145 320 313 513 411 193 96 448 177
677 213 58 9 115 18 126 20 23 5 34 31 34 81 0 29 -7 36 -71 74 -481 286 -552
1015 -136 1406 85 81 158 126 255 160 404 140 822 -106 954 -563 20 -67 23
-101 23 -243 0 -188 -10 -239 -81 -407 -26 -62 -38 -103 -31 -103 7 0 28 10
47 21 277 170 627 292 928 325 69 7 75 13 85 79 l6 40 -72 40 c-84 47 -214
171 -272 259 -302 463 -105 1133 384 1310 419 151 860 -130 967 -617 19 -87
22 -279 5 -362 -55 -266 -206 -485 -411 -594 l-59 -32 6 -47 c3 -26 9 -51 14
-56 4 -5 52 -15 106 -23 473 -68 872 -250 1140 -519 l112 -113 98 40 c167 68
339 115 547 149 66 11 123 23 127 27 4 5 10 29 13 54 l7 47 -58 32 c-207 116
-347 309 -410 565 -27 112 -23 314 10 436 75 284 265 497 522 585 70 24 95 28
205 28 114 0 133 -3 213 -31 111 -39 181 -82 268 -161 121 -112 218 -283 257
-456 24 -108 21 -308 -7 -421 -57 -234 -215 -446 -406 -545 l-47 -25 4 -52 c3
-29 7 -55 9 -58 3 -2 50 -11 105 -19 54 -9 129 -22 166 -29 l68 -14 115 54
c200 94 494 179 693 199 33 4 64 9 70 13 5 3 13 29 17 57 l7 52 -60 32 c-286
152 -463 514 -422 861 33 286 173 519 392 651 335 203 741 101 968 -245 226
-343 189 -823 -88 -1119 -52 -55 -145 -126 -206 -154 l-38 -19 4 -53 c3 -30
10 -57 17 -62 7 -4 43 -10 79 -14 37 -3 110 -15 162 -27 181 -38 158 -44 226
57 173 261 486 473 884 598 122 39 318 82 419 92 33 4 65 12 70 18 4 6 11 32
14 58 l7 47 -68 36 c-184 97 -339 311 -399 551 -23 95 -23 323 0 418 70 282
254 505 493 596 132 50 276 59 410 25z"/>
</g>
</svg>
