<?xml version="1.0" standalone="no"?>
<!DOCTYPE svg PUBLIC "-//W3C//DTD SVG 20010904//EN"
 "http://www.w3.org/TR/2001/REC-SVG-20010904/DTD/svg10.dtd">
<svg version="1.0" xmlns="http://www.w3.org/2000/svg"
 width="1280.000000pt" height="853.000000pt" viewBox="0 0 1280.000000 853.000000"
 preserveAspectRatio="xMidYMid meet">
<g transform="translate(0.000000,853.000000) scale(0.100000,-0.100000)"
fill="#ffffff" stroke="none">
<path d="M10596 6899 c-214 -37 -393 -70 -399 -72 -6 -2 45 -40 111 -85 67
-46 122 -88 122 -95 0 -7 -118 -78 -262 -159 -1336 -745 -1755 -981 -1767
-992 -7 -8 -68 -132 -136 -277 l-123 -264 -218 -122 -219 -121 -177 29 -178
29 -67 -37 c-38 -20 -680 -379 -1428 -796 -748 -418 -1375 -767 -1392 -775
-18 -9 -35 -13 -39 -10 -8 9 76 240 95 260 9 9 453 260 986 558 534 298 975
547 982 553 6 7 57 138 113 292 55 154 104 285 108 291 12 19 1945 1095 1962
1092 12 -3 18 -33 31 -145 8 -79 18 -145 21 -148 3 -3 123 145 268 330 144
185 260 338 258 340 -8 8 -841 -91 -841 -100 1 -5 57 -53 125 -105 67 -53 123
-102 123 -110 0 -7 -427 -252 -990 -566 l-990 -553 -107 -292 c-58 -160 -112
-297 -120 -304 -7 -6 -447 -254 -978 -550 -531 -295 -973 -545 -982 -554 -9
-9 -42 -86 -73 -171 -31 -85 -62 -162 -70 -170 -9 -8 -48 -33 -88 -55 l-72
-41 -56 -134 -56 -135 -119 -67 c-65 -37 -125 -68 -131 -68 -18 0 -17 14 18
317 17 147 33 331 34 408 2 77 4 148 4 157 1 11 21 23 65 38 35 11 93 38 128
60 95 57 103 57 174 12 33 -22 72 -54 87 -73 14 -18 29 -30 33 -26 10 10 -20
141 -136 602 -54 215 -112 473 -130 574 -37 210 -38 205 49 216 96 13 309 58
382 81 102 32 140 61 246 184 49 58 144 158 211 222 67 64 122 123 122 130 0
7 -23 39 -50 71 -28 32 -50 64 -50 70 0 16 53 103 94 154 19 23 44 71 55 106
14 41 34 75 56 97 19 19 35 40 35 47 0 18 -7 16 -41 -8 -31 -22 -59 -20 -59 4
0 15 45 59 78 76 12 7 20 16 17 22 -11 17 -49 9 -76 -17 -23 -22 -30 -24 -47
-13 -16 10 -27 8 -64 -9 -24 -12 -50 -22 -56 -22 -7 0 -12 -6 -12 -14 0 -7
-10 -25 -21 -40 -18 -24 -21 -37 -17 -90 3 -36 0 -78 -6 -97 -14 -39 -249
-354 -271 -363 -8 -3 -30 -29 -49 -58 -19 -29 -64 -82 -100 -117 -63 -62 -67
-65 -133 -74 -37 -5 -86 -9 -108 -8 -22 1 -49 -3 -60 -8 -48 -24 -111 -39
-127 -30 -9 5 -26 9 -37 9 -12 0 -29 4 -39 9 -9 5 -29 14 -44 19 -15 6 -42 35
-61 65 -58 90 -87 100 -224 76 -111 -19 -141 7 -90 82 28 42 57 57 129 64 80
9 101 28 104 96 1 30 -3 71 -8 92 -8 32 -6 42 8 58 21 24 13 43 -31 71 -24 16
-38 35 -46 61 -5 21 -19 53 -29 70 -14 23 -18 42 -14 69 6 33 3 41 -27 69 -77
71 -169 86 -314 49 -106 -27 -131 -44 -179 -120 l-41 -65 0 -102 0 -102 58
-113 c32 -62 57 -120 57 -128 0 -8 -27 -39 -60 -68 -54 -48 -65 -53 -137 -66
-43 -7 -95 -21 -117 -30 -21 -9 -66 -16 -100 -16 -34 0 -70 -6 -79 -12 -19
-15 -47 -89 -47 -127 0 -14 -18 -55 -40 -91 -30 -48 -40 -76 -40 -106 0 -33
-6 -46 -31 -68 -24 -21 -29 -33 -25 -51 4 -15 -2 -39 -13 -62 -11 -21 -48
-117 -83 -213 -61 -171 -63 -178 -63 -275 l0 -100 41 -60 c48 -72 201 -389
240 -498 l27 -79 31 7 c71 16 70 18 83 -74 8 -55 17 -88 27 -93 8 -5 18 -29
22 -53 3 -25 11 -45 18 -45 40 -1 41 -5 43 -377 2 -285 -1 -371 -12 -421 -8
-35 -15 -94 -15 -132 0 -66 -1 -70 -46 -124 -41 -50 -47 -65 -56 -129 -5 -40
-15 -83 -21 -97 -9 -18 -186 -121 -674 -395 -364 -203 -667 -375 -673 -381 -8
-8 -7 -14 2 -21 10 -8 179 82 657 349 354 198 647 356 651 351 7 -7 -13 -189
-23 -218 -3 -7 -76 -52 -161 -100 -86 -48 -158 -91 -161 -95 -3 -4 1 -13 8
-18 10 -8 47 8 145 63 73 41 137 75 142 75 15 0 13 -18 -21 -210 -27 -150 -32
-208 -36 -403 -6 -239 -1 -277 38 -298 14 -7 19 -21 19 -55 0 -63 34 -96 131
-125 106 -32 249 -30 249 4 0 6 -30 74 -66 149 l-66 137 48 103 c26 57 58 119
70 139 29 47 59 150 79 269 16 95 60 335 70 378 3 12 11 22 19 22 24 0 28
-106 10 -241 -20 -147 -26 -551 -8 -569 6 -6 43 -14 83 -17 64 -5 75 -3 101
16 39 28 63 27 125 -8 67 -38 180 -61 297 -61 105 1 163 11 186 34 22 22 7 35
-64 51 -33 8 -99 27 -147 44 -85 29 -93 34 -173 117 -46 47 -84 91 -84 97 0 6
7 18 15 27 18 20 45 196 45 297 0 43 5 94 10 114 6 20 21 107 35 194 14 88 30
165 37 171 7 7 264 153 571 325 l559 311 81 -10 c57 -7 87 -7 102 0 11 6 470
262 1020 569 l1001 559 94 -11 c123 -13 140 -17 140 -32 0 -6 -398 -234 -885
-506 -487 -272 -889 -499 -894 -505 -5 -6 -64 -128 -130 -271 -67 -143 -131
-269 -144 -280 -12 -11 -204 -121 -425 -244 -350 -196 -436 -251 -391 -251 6
0 201 107 434 237 l424 237 127 270 c70 149 132 276 138 283 9 10 1710 963
1814 1017 31 16 42 16 164 2 l132 -15 519 290 c314 176 523 287 529 281 5 -5
12 -73 15 -151 3 -78 9 -140 13 -139 15 6 562 630 557 635 -3 3 -189 -27 -414
-66 -224 -39 -412 -71 -417 -71 -18 0 18 -30 110 -90 57 -38 94 -69 92 -78 -2
-7 -228 -140 -503 -293 l-500 -280 -70 6 c-123 11 -134 24 -57 66 l48 27 123
263 c68 145 130 271 139 280 24 23 987 559 1005 559 17 0 27 -66 27 -183 0
-44 4 -77 9 -75 11 4 554 616 560 631 2 6 -9 7 -30 4 -106 -19 -122 -20 -117
-6 5 15 862 499 883 499 17 0 23 -30 31 -172 11 -207 -23 -227 316 180 163
196 293 358 288 360 -8 3 -840 -113 -888 -123 -13 -3 -20 -9 -18 -14 3 -5 58
-46 121 -91 63 -46 115 -88 115 -95 0 -9 -877 -508 -1026 -583 -11 -6 -132
-30 -267 -53 -136 -24 -247 -45 -247 -48 0 -3 30 -25 65 -49 36 -23 65 -48 65
-55 0 -6 -57 -44 -128 -83 -70 -39 -234 -131 -365 -204 l-239 -134 -91 13
c-105 15 -117 19 -117 35 0 6 77 54 172 106 94 52 179 102 189 110 10 8 73
134 140 278 109 235 126 266 158 286 20 12 474 267 1009 566 771 430 976 540
983 529 5 -8 9 -57 10 -109 3 -178 -15 -184 225 87 399 451 360 403 327 402
-15 0 -203 -32 -417 -70z m-1760 -1863 c19 -15 19 -15 -1 -34 -11 -10 -240
-142 -510 -291 -269 -150 -497 -279 -505 -287 -9 -7 -72 -133 -140 -279 l-124
-266 -80 -45 -81 -46 -138 16 c-75 9 -153 16 -171 16 -27 0 -260 -126 -1047
-566 -917 -512 -1016 -565 -1047 -560 -41 6 -49 13 -35 27 6 6 215 125 464
264 l453 253 131 278 131 278 729 409 c402 224 755 421 786 437 l56 29 148
-24 148 -24 46 24 c25 13 199 109 386 214 187 105 349 191 361 191 11 0 29 -6
40 -14z m-1336 -334 c76 -12 105 -21 107 -32 2 -10 -218 -138 -723 -420 -400
-223 -739 -412 -754 -421 -20 -13 -56 -80 -156 -292 -71 -151 -136 -279 -144
-285 -8 -5 -230 -129 -493 -276 l-479 -268 -220 26 -219 25 -170 -94 c-93 -52
-174 -95 -180 -95 -13 0 -7 30 20 93 17 40 30 51 95 87 42 23 85 49 95 58 11
10 38 70 61 134 23 64 50 124 59 131 13 12 2077 1168 2311 1295 41 22 199 110
350 195 181 102 285 155 305 156 17 0 77 -8 135 -17z m-4586 -129 c44 -89 69
-215 64 -328 -3 -55 -10 -109 -16 -121 -12 -23 -91 -58 -118 -52 -10 2 -24 24
-34 56 -10 29 -31 70 -47 90 -17 21 -33 55 -37 80 -6 40 -5 43 26 62 28 16 38
34 67 117 19 54 38 108 42 121 13 33 26 27 53 -25z m746 -1337 c0 -7 -27 -86
-60 -174 -51 -140 -178 -542 -210 -669 -7 -26 -17 -43 -25 -43 -8 0 -15 2 -15
4 0 17 115 410 140 476 17 47 54 150 82 230 28 80 54 155 59 168 9 24 29 30
29 8z m660 -222 c0 -10 -49 -143 -60 -165 -10 -18 -78 -59 -100 -59 -16 0 -13
11 26 104 31 74 42 90 73 106 37 20 61 25 61 14z m288 -313 c84 -11 156 -22
160 -26 11 -11 -3 -19 -526 -311 -329 -184 -497 -272 -502 -264 -9 14 8 122
21 135 5 6 53 35 105 65 l96 55 31 73 32 73 195 110 c107 60 204 109 215 108
11 0 89 -8 173 -18z m-578 -60 c0 -5 -12 -36 -26 -69 -24 -56 -29 -61 -109
-105 -109 -61 -119 -61 -110 -1 3 26 9 52 11 59 6 14 202 125 222 125 6 0 12
-4 12 -9z m-90 -219 c0 -29 -20 -48 -93 -88 -71 -38 -91 -37 -80 4 4 15 30 36
77 62 79 44 96 48 96 22z m-581 -164 c0 -35 -35 -207 -43 -215 -3 -4 -10 -2
-15 3 -8 8 19 182 34 222 8 20 25 13 24 -10z m-50 -305 c-2 -44 -25 -117 -38
-121 -11 -4 -12 6 -6 53 4 32 9 64 12 72 8 19 33 16 32 -4z"/>
<path d="M5060 6149 c0 -5 5 -7 10 -4 6 3 10 8 10 11 0 2 -4 4 -10 4 -5 0 -10
-5 -10 -11z"/>
</g>
</svg>
