<?xml version="1.0" standalone="no"?>
<!DOCTYPE svg PUBLIC "-//W3C//DTD SVG 20010904//EN"
 "http://www.w3.org/TR/2001/REC-SVG-20010904/DTD/svg10.dtd">
<svg version="1.0" xmlns="http://www.w3.org/2000/svg"
 width="1280.000000pt" height="853.000000pt" viewBox="0 0 1280.000000 853.000000"
 preserveAspectRatio="xMidYMid meet">
<metadata>
Created by potrace 1.15, written by Peter Selinger 2001-2017
</metadata>
<g transform="translate(0.000000,853.000000) scale(0.100000,-0.100000)"
fill="#ffc107" stroke="none">
<path d="M11000 6979 c-107 -22 -792 -139 -810 -139 -11 0 -20 -4 -20 -8 0 -5
59 -48 132 -97 l131 -87 -69 -40 c-38 -21 -498 -278 -1022 -571 l-954 -533
-127 -272 -128 -273 -213 -119 -213 -119 -180 29 -180 30 -446 -249 c-245
-136 -831 -463 -1301 -726 -470 -263 -926 -517 -1012 -566 -87 -48 -158 -85
-158 -82 0 15 85 239 94 250 6 6 126 75 266 153 140 79 581 325 980 548 399
222 727 408 730 412 3 5 52 139 110 298 l105 290 45 25 c25 13 465 259 979
546 513 287 935 521 936 519 1 -2 10 -75 19 -163 9 -87 18 -160 20 -162 1 -2
127 157 280 353 152 196 276 358 273 360 -4 5 -887 -93 -893 -99 -2 -2 59 -52
136 -112 77 -59 140 -111 140 -115 0 -3 -278 -161 -617 -351 -339 -189 -786
-438 -992 -554 l-376 -210 -106 -295 c-71 -195 -113 -298 -125 -306 -11 -6
-453 -253 -984 -549 -531 -296 -970 -544 -976 -552 -7 -8 -31 -69 -55 -136
-73 -210 -67 -199 -161 -252 l-83 -46 -54 -134 -55 -135 -119 -66 c-65 -36
-121 -63 -124 -60 -3 3 9 139 27 302 17 163 33 359 34 435 1 76 4 139 6 141 3
2 30 12 60 21 30 9 89 37 130 62 41 24 83 45 93 45 27 0 106 -56 154 -108 79
-88 74 -56 -92 603 -90 356 -163 711 -151 740 2 7 26 16 53 20 93 12 355 67
410 86 92 31 137 64 208 151 37 46 137 151 221 234 l153 150 -17 26 c-9 13
-35 46 -56 72 l-39 47 16 35 c10 19 39 64 67 100 30 40 56 86 66 121 11 36 30
71 55 98 61 66 49 100 -17 50 -39 -30 -44 -31 -44 -6 0 21 47 66 81 76 32 10
19 39 -19 43 -26 3 -39 -3 -61 -27 -22 -24 -30 -27 -35 -16 -7 19 18 77 60
141 38 57 41 69 19 77 -16 7 -68 -52 -109 -123 -32 -57 -35 -30 -6 64 21 67
20 86 -4 86 -13 0 -31 -31 -54 -95 -17 -48 -52 -183 -52 -204 0 -10 -9 -26
-21 -37 -19 -17 -21 -27 -16 -88 7 -88 1 -103 -103 -241 -125 -166 -143 -188
-168 -208 -12 -10 -40 -44 -61 -75 -22 -32 -65 -82 -98 -113 -55 -54 -61 -57
-123 -64 -36 -4 -86 -7 -112 -6 -25 1 -49 -3 -53 -9 -3 -5 -16 -10 -29 -10
-12 0 -26 -4 -32 -9 -16 -14 -62 -22 -69 -11 -4 6 -15 10 -24 8 -10 -2 -29 2
-42 8 -13 6 -36 16 -50 22 -16 6 -39 33 -59 66 -51 90 -67 95 -273 70 l-57 -7
0 28 c0 65 71 115 163 115 29 0 46 7 67 28 25 26 28 34 25 88 -1 33 -5 73 -9
90 -5 22 -2 34 9 44 8 7 15 18 15 25 0 14 -65 75 -80 75 -6 0 -10 11 -10 24 0
12 -11 44 -24 69 -19 34 -23 55 -19 82 5 32 2 39 -37 75 -62 58 -113 74 -208
67 -92 -6 -202 -39 -237 -70 -14 -12 -42 -49 -62 -82 -33 -54 -37 -69 -41
-142 -5 -98 8 -144 74 -258 51 -91 57 -112 31 -129 -10 -6 -38 -30 -61 -53
-34 -34 -51 -43 -78 -43 -38 0 -139 -24 -171 -42 -12 -6 -48 -10 -80 -9 -39 2
-66 -3 -82 -13 -24 -16 -55 -92 -55 -136 0 -15 -11 -44 -25 -64 -42 -62 -55
-94 -55 -135 0 -33 -5 -43 -31 -62 -26 -18 -30 -26 -25 -51 3 -17 0 -38 -8
-51 -8 -12 -46 -115 -86 -229 -71 -204 -72 -209 -69 -292 4 -80 6 -88 45 -143
50 -73 203 -390 241 -501 31 -91 24 -87 105 -67 25 6 25 5 36 -76 7 -58 16
-87 27 -95 10 -8 19 -32 22 -58 5 -39 9 -45 32 -48 l26 -3 2 -365 c2 -291 -1
-378 -12 -428 -8 -35 -14 -90 -14 -123 1 -51 -2 -64 -27 -95 -16 -20 -37 -47
-47 -60 -12 -15 -23 -55 -29 -102 -5 -42 -15 -85 -21 -95 -7 -9 -313 -185
-682 -391 -368 -206 -671 -378 -672 -383 -2 -5 3 -17 10 -27 13 -17 39 -4 398
196 826 462 911 509 914 506 2 -2 -3 -48 -10 -103 -8 -55 -15 -103 -15 -107 0
-4 -74 -48 -165 -99 -91 -50 -165 -95 -165 -98 0 -4 6 -16 14 -26 12 -17 21
-14 151 58 76 43 140 75 143 72 3 -3 -10 -92 -28 -197 -30 -170 -34 -219 -38
-417 -4 -202 -2 -226 14 -257 10 -19 24 -34 31 -34 8 0 13 -14 13 -37 0 -62
10 -82 54 -108 115 -66 346 -80 346 -21 0 8 -26 67 -59 132 -32 66 -61 129
-65 140 -6 21 58 166 113 258 37 61 46 100 128 561 9 50 20 94 24 99 14 16 21
-121 10 -191 -27 -166 -38 -431 -25 -562 8 -72 13 -75 132 -76 60 0 75 3 83
18 15 25 52 21 118 -13 87 -45 184 -63 321 -57 118 4 172 19 177 47 5 27 -12
39 -77 54 -134 31 -248 76 -272 107 -34 45 -90 102 -118 120 l-25 17 21 18
c17 15 25 42 38 129 9 61 16 145 16 188 0 43 7 106 15 140 9 34 24 120 34 190
10 70 22 132 27 137 5 5 260 149 567 320 l559 312 84 -10 85 -10 482 270 c265
148 723 404 1018 569 l537 299 111 -13 c61 -8 113 -16 115 -18 3 -2 -91 -58
-207 -123 -117 -65 -519 -289 -893 -498 l-682 -381 -127 -273 c-71 -151 -133
-278 -139 -283 -6 -5 -198 -114 -426 -241 -228 -128 -417 -234 -419 -235 -1
-2 3 -13 11 -24 14 -19 29 -11 444 220 236 132 433 244 437 249 5 4 66 131
136 280 l127 273 670 374 c368 206 783 437 921 515 l253 140 132 -15 132 -16
519 290 c286 159 521 288 522 287 7 -8 15 -124 15 -218 l0 -105 43 45 c89 95
568 642 565 645 -2 1 -129 -19 -283 -46 -154 -27 -347 -61 -430 -75 -82 -14
-158 -28 -169 -31 -14 -4 12 -25 103 -86 67 -44 118 -84 114 -88 -4 -4 -231
-131 -503 -283 l-495 -277 -70 6 c-111 10 -114 12 -53 48 l52 32 127 270 126
270 504 282 c277 155 505 280 508 278 2 -3 7 -69 10 -147 l6 -143 303 342
c166 188 302 344 302 346 0 3 -33 -2 -72 -9 -40 -8 -82 -14 -93 -14 -17 0 843
488 870 493 5 1 14 -72 21 -171 7 -95 14 -178 16 -184 3 -9 618 718 626 740 1
4 -210 -23 -470 -60 -260 -37 -479 -68 -486 -68 -23 0 -4 -17 128 -111 72 -51
128 -94 126 -96 -2 -2 -236 -134 -520 -293 l-515 -288 -243 -42 c-134 -23
-253 -45 -266 -48 -20 -6 -13 -13 58 -61 l80 -54 -28 -17 c-15 -9 -179 -101
-365 -205 l-339 -188 -99 13 c-55 7 -102 16 -104 19 -2 4 81 53 185 111 l187
105 129 273 129 274 165 92 c91 51 537 300 993 554 455 255 834 465 842 468
12 5 15 -8 16 -77 1 -46 4 -112 8 -145 l6 -62 260 295 c143 162 279 317 303
344 24 27 38 48 30 48 -7 -1 -33 -5 -58 -10z m-5930 -702 c-24 -67 -27 -147
-6 -147 7 0 25 24 40 53 14 29 42 71 61 93 l35 39 -30 -47 c-17 -26 -40 -70
-52 -97 -11 -28 -26 -51 -32 -51 -6 0 -28 -9 -49 -20 -20 -11 -37 -19 -37 -18
0 13 53 196 65 224 23 57 27 35 5 -29z m3752 -1277 c-15 -9 -250 -141 -523
-293 l-496 -277 -127 -273 -127 -272 -77 -43 -77 -43 -167 18 -166 19 -1016
-568 c-983 -549 -1061 -590 -1080 -559 -3 5 198 122 447 261 248 138 457 257
464 263 6 7 68 134 138 283 98 211 132 274 153 286 15 9 366 205 781 437 l754
421 153 -25 152 -25 393 220 393 219 27 -16 28 -17 -27 -16z m-1324 -307 c61
-10 112 -20 112 -23 0 -3 -341 -195 -758 -428 l-757 -422 -129 -278 -129 -277
-490 -273 -489 -274 -222 25 -221 25 -169 -95 c-92 -52 -170 -92 -172 -90 -3
2 5 29 17 60 21 55 24 58 115 109 l94 53 46 127 c26 70 52 132 58 137 13 10
2217 1242 2286 1277 25 13 180 100 345 193 165 93 311 170 325 170 14 1 76 -7
138 -16z m-4589 -128 c45 -85 72 -269 56 -391 l-7 -55 -55 -24 c-30 -14 -59
-23 -63 -20 -5 3 -12 20 -15 38 -10 42 -32 86 -60 117 -12 14 -25 44 -29 67
-6 38 -4 42 27 60 28 17 37 35 72 136 22 64 42 117 45 117 3 0 16 -20 29 -45z
m680 -1515 c-69 -191 -190 -578 -204 -653 -4 -20 -11 -40 -16 -43 -13 -8 -13
-8 37 174 39 143 220 682 240 713 21 34 5 -19 -57 -191z m692 -125 c-26 -71
-34 -83 -72 -107 -24 -14 -47 -27 -50 -27 -4 -1 10 40 31 90 32 79 43 94 76
113 22 12 40 20 42 16 1 -3 -11 -41 -27 -85z m307 -231 c81 -9 153 -20 160
-23 7 -4 -191 -121 -492 -289 -278 -155 -508 -282 -511 -282 -6 0 6 89 15 115
5 11 51 44 108 75 l100 55 31 75 31 75 192 107 c106 59 199 108 206 108 8 0
80 -7 160 -16z m-586 -109 c-27 -63 -28 -65 -117 -114 -49 -27 -91 -48 -93
-47 -2 2 0 26 4 54 l6 50 107 60 c58 33 109 60 113 61 4 1 -5 -28 -20 -64z
m-73 -173 c-7 -19 -31 -39 -85 -69 l-76 -43 7 28 c3 15 10 28 13 30 4 1 36 20
72 41 36 22 68 40 72 40 4 1 3 -11 -3 -27z m-573 -150 c-3 -5 -12 -53 -22
-108 -9 -54 -20 -103 -25 -109 -12 -13 -11 1 5 82 8 37 17 85 20 106 4 20 11
37 17 37 6 0 8 -4 5 -8z m-67 -366 c-6 -36 -13 -66 -16 -66 -7 0 6 121 14 133
12 20 13 -5 2 -67z"/>
</g>
</svg>
