<?xml version="1.0" standalone="no"?>
<!DOCTYPE svg PUBLIC "-//W3C//DTD SVG 20010904//EN"
 "http://www.w3.org/TR/2001/REC-SVG-20010904/DTD/svg10.dtd">
<svg version="1.0" xmlns="http://www.w3.org/2000/svg"
 width="985.000000pt" height="1280.000000pt" viewBox="0 0 985.000000 1280.000000"
 preserveAspectRatio="xMidYMid meet">
<metadata>
Created by potrace 1.15, written by Peter Selinger 2001-2017
</metadata>
<g transform="translate(0.000000,1280.000000) scale(0.100000,-0.100000)"
fill="#ffffff" stroke="none">
<path d="M4405 12194 c-316 -30 -508 -64 -755 -135 -462 -133 -871 -345 -1260
-653 -160 -127 -447 -414 -579 -581 -368 -463 -642 -1015 -820 -1655 -37 -131
-44 -148 -77 -175 -33 -29 -37 -38 -59 -151 -83 -415 -154 -1140 -175 -1769
-28 -850 49 -1513 226 -1936 59 -141 123 -219 406 -500 182 -181 228 -232 228
-253 0 -44 29 -225 56 -343 108 -482 335 -827 628 -951 53 -23 75 -26 171 -26
129 0 198 21 303 93 282 191 477 596 554 1151 20 145 17 555 -5 705 -75 511
-258 901 -510 1091 -123 92 -210 124 -342 124 -69 0 -106 -6 -157 -24 -231
-82 -447 -345 -568 -693 -31 -89 -32 -91 -58 -83 -56 17 -64 25 -106 114 -141
296 -227 722 -266 1321 -14 211 -14 799 -1 995 29 410 76 728 138 940 14 47
27 92 30 102 3 11 -15 35 -53 71 l-58 55 48 178 c86 317 156 522 238 697 l41
87 82 0 81 0 67 113 c227 380 604 799 987 1098 492 383 1064 647 1665 768 243
49 461 75 540 66 149 -18 347 -64 367 -86 10 -10 35 -21 55 -24 185 -30 319
-77 554 -195 488 -245 911 -599 1241 -1038 103 -136 190 -279 268 -437 81
-164 122 -279 150 -415 19 -93 20 -137 20 -799 l0 -701 40 0 40 0 0 -240 0
-240 -32 0 c-18 0 -50 -5 -70 -11 -34 -9 -38 -13 -38 -43 0 -18 -14 -167 -30
-332 -80 -799 -191 -1496 -335 -2100 l-27 -110 -77 -27 c-103 -37 -256 -122
-366 -204 -50 -37 -155 -132 -235 -212 -722 -723 -1035 -1897 -624 -2341 31
-33 76 -72 100 -86 43 -25 43 -26 26 -49 -24 -32 -75 -66 -140 -93 -64 -25
-92 -48 -92 -72 0 -24 34 -65 75 -90 32 -20 35 -20 60 -4 14 9 27 15 30 13 2
-2 11 -48 21 -103 16 -91 16 -99 1 -107 -53 -30 -102 -77 -105 -101 -4 -30 58
-15 -559 -133 -1443 -276 -2854 -513 -3400 -570 -60 -7 -62 -6 -68 18 -6 23
-12 25 -148 41 -258 30 -399 38 -642 38 -253 0 -380 -9 -558 -43 -336 -62
-548 -202 -547 -359 1 -89 110 -196 254 -246 144 -51 419 -64 621 -30 318 54
646 176 965 359 58 33 108 64 111 69 3 5 141 29 305 53 493 72 981 157 1784
311 397 76 1492 297 1772 358 l107 23 6 -49 c9 -62 23 -68 166 -75 257 -13
672 68 860 168 109 58 179 134 179 194 0 14 2 25 5 25 11 0 731 162 932 209
l212 50 78 -35 c328 -150 1007 -429 1216 -500 164 -56 181 -56 236 0 l43 43
-96 52 c-329 177 -848 380 -1064 416 -47 8 -48 19 -3 28 46 10 177 77 205 106
27 28 62 147 92 313 23 127 24 369 1 461 -48 195 -164 307 -318 307 -80 0
-144 -18 -207 -59 -111 -71 -195 -181 -239 -315 -23 -71 -26 -97 -26 -206 0
-84 5 -141 16 -173 8 -26 12 -47 7 -45 -5 2 -135 115 -289 251 l-281 248 0 48
0 48 57 2 c32 1 60 4 62 7 3 2 -7 77 -22 167 l-26 162 46 99 c153 336 227 641
226 936 -1 166 -13 243 -57 367 -26 70 -26 72 -11 138 44 189 133 629 170 835
136 775 188 1377 155 1785 -16 193 -13 185 -74 185 l-51 0 0 210 0 210 123 0
122 0 0 286 0 285 -60 209 -60 209 0 143 c0 237 -35 546 -89 783 -140 621
-449 1067 -953 1376 -94 57 -352 185 -443 219 -174 65 -263 95 -385 130 -314
91 -676 165 -1080 221 -41 6 -122 17 -180 25 -99 14 -619 27 -715 18z m4341
-8913 c56 -25 109 -92 136 -170 21 -59 23 -84 23 -246 0 -150 -4 -199 -24
-297 -15 -72 -29 -118 -36 -118 -7 0 -95 -9 -195 -20 l-183 -20 -43 27 c-76
48 -134 211 -134 378 0 148 42 261 131 360 102 111 225 151 325 106z m-1343
-564 c42 -18 245 -230 277 -290 l25 -47 -20 -37 c-11 -21 -60 -79 -110 -129
-109 -110 -172 -144 -336 -180 l-116 -26 -36 25 c-84 57 -324 78 -508 44 l-77
-14 -21 81 c-12 45 -21 86 -21 91 1 6 63 46 138 90 197 115 372 226 491 312
68 48 119 77 145 83 65 12 134 11 169 -3z"/>
</g>
</svg>
