<?xml version="1.0" ?><!DOCTYPE svg  PUBLIC '-//W3C//DTD SVG 1.1//EN'  'http://www.w3.org/Graphics/SVG/1.1/DTD/svg11.dtd'><svg enable-background="new 0 0 128 128" id="Слой_1" version="1.1" viewBox="0 0 128 128" xml:space="preserve" xmlns="http://www.w3.org/2000/svg" xmlns:xlink="http://www.w3.org/1999/xlink"><g><path d="M109.6,38.9l8.5-8.5L97.6,9.9l-8.5,8.5c-3.4-1.9-6.9-3.3-10.6-4.4V2h-29v12c-3.7,1.1-7.2,2.5-10.6,4.4   l-8.5-8.5L9.9,30.4l8.5,8.5c-1.9,3.4-3.3,6.9-4.4,10.6H2v29h12c1.1,3.7,2.5,7.2,4.4,10.6l-8.5,8.5l20.5,20.5l8.5-8.5   c3.4,1.9,6.9,3.3,10.6,4.4v12h29v-12c3.7-1.1,7.2-2.5,10.6-4.4l8.5,8.5l20.5-20.5l-8.5-8.5c1.9-3.4,3.3-6.9,4.4-10.6h12v-29h-12   C112.9,45.8,111.4,42.3,109.6,38.9z M122,74.5h-11.1l-0.4,1.5c-1.1,4.3-2.8,8.5-5.1,12.4l-0.8,1.3l7.9,7.9l-14.8,14.8l-7.9-7.9   l-1.3,0.8c-3.9,2.3-8.1,4-12.4,5.1l-1.5,0.4V122h-21v-11.1l-1.5-0.4c-4.3-1.1-8.5-2.8-12.4-5.1l-1.3-0.8l-7.9,7.9L15.6,97.6   l7.9-7.9l-0.8-1.3c-2.3-3.9-4-8.1-5.1-12.4l-0.4-1.5H6v-21h11.1l0.4-1.5c1.1-4.3,2.8-8.5,5.1-12.4l0.8-1.3l-7.9-7.9l14.8-14.8   l7.9,7.9l1.3-0.8c3.9-2.3,8.1-4,12.4-5.1l1.5-0.4V6h21v11.1l1.5,0.4c4.3,1.1,8.5,2.8,12.4,5.1l1.3,0.8l7.9-7.9l14.8,14.8l-7.9,7.9   l0.8,1.3c2.3,3.9,4,8.1,5.1,12.4l0.4,1.5H122V74.5z" fill="#3EBBC4"/><path d="M64,32c-17.6,0-32,14.4-32,32s14.4,32,32,32c17.6,0,32-14.4,32-32S81.6,32,64,32z M64,92   c-15.4,0-28-12.6-28-28s12.6-28,28-28s28,12.6,28,28S79.4,92,64,92z" fill="#3EBBC4"/><path d="M63.9,61.5c-1.7-0.8-3.1-1.5-3.1-3.6c0-1.7,1.5-3.2,3.2-3.2c1,0,2.2,0.5,2.8,1.7l3.7-1.8   c-0.8-1.9-2.6-3.2-4.5-3.7v-1.7h-4v1.7c-3.1,0.9-5.3,3.6-5.3,7.2c0,4.3,2.8,5.9,6.5,7.5c1.9,0.8,4.1,1.8,4.1,4.4   c0,1.8-1.6,3.5-3.4,3.5c-1.8,0-2.9-0.9-3.6-2.2c-1.2,0.4-2.4,0.8-3.5,1.1c0.6,2.3,2.6,4.3,5.3,4.9v2h4v-2c3-0.9,5.3-3.8,5.3-7.2   C71.3,65.5,69.1,63.8,63.9,61.5z" fill="#3EBBC4"/></g></svg>