<?xml version="1.0" ?><!DOCTYPE svg  PUBLIC '-//W3C//DTD SVG 1.1//EN'  'http://www.w3.org/Graphics/SVG/1.1/DTD/svg11.dtd'><svg enable-background="new 0 0 128 128" id="Слой_1" version="1.1" viewBox="0 0 128 128" xml:space="preserve" xmlns="http://www.w3.org/2000/svg" xmlns:xlink="http://www.w3.org/1999/xlink"><g><path d="M54,12c-23.2,0-42,18.8-42,42s18.8,42,42,42s42-18.8,42-42S77.2,12,54,12z M54,92c-21,0-38-17-38-38   s17-38,38-38s38,17,38,38S75,92,54,92z" fill="#3EBBC4"/><path d="M95.5,92.7l-3.4-3.4C100.7,80,106,67.6,106,54c0-28.7-23.3-52-52-52S2,25.3,2,54s23.3,52,52,52   c13.6,0,26-5.3,35.3-13.9l3.4,3.4l-5.3,5.3l26.1,26.1l13.4-13.4l-26.1-26.1L95.5,92.7z M54,102C27.5,102,6,80.5,6,54S27.5,6,54,6   s48,21.5,48,48S80.5,102,54,102z M113.5,121.3L93,100.8l7.8-7.8l20.5,20.5L113.5,121.3z" fill="#3EBBC4"/><path d="M70,34.3h-9v3.8l-7-8L31.6,51.6l2.8,2.8l1.6-1.6V75h34V52.8l1.6,1.6l2.8-2.8L70,47.2V34.3z M66,71H40V48.8   l13-13l12,12v-9.5h1v10.1v0.4V71z" fill="#3EBBC4"/></g></svg>