<?xml version="1.0" ?><svg enable-background="new 0 0 32 32" version="1.1" viewBox="0 0 32 32" xml:space="preserve" xmlns="http://www.w3.org/2000/svg" xmlns:xlink="http://www.w3.org/1999/xlink"><g id="Layer_6"/><g id="Layer_4_copy_2"><g><circle cx="16" cy="16" fill="#D3D3D3" r="16"/><circle cx="16" cy="16" fill="#FFFFFF" r="13.809"/><circle cx="16" cy="16" r="11.597"/></g></g><g id="Official_copy_3"><g><path d="M18.322,8.901c0,0-3.26,0-4.376,0c-2.002,0-3.887,1.405-3.887,3.161c0,1.795,1.364,3.19,3.401,3.19    c0.142,0,0.28-0.032,0.415-0.042c-0.133,0.252-0.226,0.523-0.226,0.819c0,0.499,0.268,0.897,0.606,1.227    c-0.254,0-0.503,0.004-0.774,0.004c-2.48,0.001-4.388,1.579-4.388,3.216c0,1.613,2.093,2.623,4.572,2.623    c2.827,0,4.389-1.606,4.389-3.219c0-1.293-0.382-2.068-1.561-2.904c-0.404-0.285-1.176-0.98-1.176-1.389    c0-0.478,0.136-0.714,0.858-1.278c0.738-0.576,1.261-1.264,1.261-2.208c0-1.122-0.483-2.492-1.422-2.492h1.597L18.322,8.901z     M16.854,19.601c0.034,0.15,0.055,0.305,0.055,0.461c0,1.303-0.841,2.322-3.251,2.322c-1.714,0-2.952-1.085-2.952-2.388    c0-1.277,1.535-2.341,3.251-2.322c0.399,0.004,0.772,0.069,1.11,0.177C15.997,18.499,16.664,18.864,16.854,19.601z M14.108,14.739    c-1.151-0.033-2.245-1.287-2.443-2.797c-0.198-1.512,0.574-2.668,1.724-2.634c1.15,0.035,2.245,1.248,2.443,2.759    C16.03,13.577,15.258,14.773,14.108,14.739z" fill="#FFFFFF"/><polygon fill="#FFFFFF" points="21.872,14.575 21.872,12.445 20.452,12.445 20.452,14.575 18.322,14.575 18.322,15.994     20.452,15.994 20.452,18.124 21.872,18.124 21.872,15.994 24.001,15.994 24.001,14.575   "/></g></g></svg>