<?xml version="1.0" ?><!DOCTYPE svg  PUBLIC '-//W3C//DTD SVG 1.1//EN'  'http://www.w3.org/Graphics/SVG/1.1/DTD/svg11.dtd'><svg enable-background="new 0 0 128 128" id="Слой_1" version="1.1" viewBox="0 0 128 128" xml:space="preserve" xmlns="http://www.w3.org/2000/svg" xmlns:xlink="http://www.w3.org/1999/xlink"><g><g><circle cx="44" cy="115" fill="#3EBBC4" r="3"/><path d="M71,29c0-9.6-5.2-18.6-13.5-23.4L57,5.4h-3.5v22.7c-5.6,4.3-13.4,4.3-19,0V5.4H31l-0.5,0.3    C22.2,10.4,17,19.4,17,29c0,0,0,0,0,0l0,0c0,0.4,0,0.9,0,1.3c0,0.2,0,0.3,0,0.5c0,0.3,0,0.5,0.1,0.8c0,0.2,0,0.4,0.1,0.6    c0,0.2,0.1,0.5,0.1,0.7c0,0.2,0.1,0.4,0.1,0.7c0,0.2,0.1,0.4,0.1,0.6c0,0.2,0.1,0.5,0.2,0.7c0,0.2,0.1,0.4,0.1,0.6    c0.1,0.2,0.1,0.5,0.2,0.7c0,0.2,0.1,0.3,0.1,0.5c0.1,0.3,0.2,0.5,0.2,0.8c0.1,0.1,0.1,0.3,0.2,0.4c0.1,0.3,0.2,0.6,0.3,0.8    c0,0.1,0.1,0.2,0.1,0.3c0.1,0.3,0.3,0.6,0.4,0.9c0,0.1,0.1,0.1,0.1,0.2c0.2,0.4,0.3,0.7,0.5,1.1c0,0,0,0,0,0    c1.4,2.7,3.2,5.1,5.4,7.2l1.2,1.3c3.8,3.9,6.4,14.1,6.4,20.8V115c0,6.1,4.9,11,11,11s11-4.9,11-11V70.6c0-6.7,2.6-16.9,6.4-20.8    l1.2-1.3c2.2-2.1,4-4.5,5.4-7.2c0,0,0,0,0,0c0.2-0.3,0.4-0.7,0.5-1.1c0-0.1,0.1-0.1,0.1-0.2c0.1-0.3,0.3-0.6,0.4-0.9    c0-0.1,0.1-0.2,0.1-0.3c0.1-0.3,0.2-0.5,0.3-0.8c0.1-0.1,0.1-0.3,0.2-0.4c0.1-0.3,0.2-0.5,0.2-0.8c0.1-0.2,0.1-0.3,0.1-0.5    c0.1-0.2,0.1-0.5,0.2-0.7c0-0.2,0.1-0.4,0.1-0.6c0.1-0.2,0.1-0.5,0.2-0.7c0-0.2,0.1-0.4,0.1-0.6c0-0.2,0.1-0.4,0.1-0.7    c0-0.2,0.1-0.5,0.1-0.7c0-0.2,0.1-0.4,0.1-0.6c0-0.3,0-0.5,0.1-0.8c0-0.2,0-0.3,0-0.5C71,29.9,71,29.4,71,29L71,29    C71,29,71,29,71,29C71,29,71,29,71,29L71,29L71,29z M30.5,10.4v19.5l0.7,0.6c3.7,3.2,8.2,4.8,12.8,4.8c4.6,0,9.1-1.6,12.8-4.7    l0.7-0.6V10.4C63.4,14.7,67,21.6,67,29c0,0.7,0,1.4-0.1,2.1c0,0,0,0.1,0,0.1c-0.1,0.7-0.2,1.4-0.3,2c0,0.1,0,0.1,0,0.2    c-0.1,0.7-0.3,1.3-0.5,2c0,0,0,0.1,0,0.1c-0.2,0.7-0.4,1.3-0.7,2c0,0,0,0,0,0.1c-1.1,2.7-2.7,5.1-4.7,7.3l-0.9,0.9    C55.6,49.6,50.1,52,44,52c-6.1,0-11.6-2.4-15.7-6.3l-0.9-0.9c-2-2.1-3.6-4.6-4.7-7.3c0,0,0,0,0-0.1c-0.3-0.6-0.5-1.3-0.7-2    c0,0,0-0.1,0-0.1c-0.2-0.6-0.3-1.3-0.5-2c0-0.1,0-0.1,0-0.2c-0.1-0.7-0.2-1.3-0.3-2c0,0,0-0.1,0-0.1C21,30.4,21,29.7,21,29    C21,21.6,24.6,14.7,30.5,10.4z M51,70.6V115c0,3.9-3.1,7-7,7s-7-3.1-7-7V70.6c0-4.3-1.1-11.1-3.4-16.7C36.8,55.3,40.3,56,44,56    c3.7,0,7.2-0.7,10.4-2.1C52.1,59.5,51,66.4,51,70.6z" fill="#3EBBC4"/><path d="M104.9,70.8l1.1-0.6V62H96V15.5c0.6-0.3,1.1-0.6,1.5-1.1c0.9-1,1.3-2.3,1.2-3.6L97.8,2h-7.6l-0.9,8.8    c-0.1,1.3,0.3,2.6,1.2,3.6c0.4,0.5,0.9,0.8,1.5,1.1V62H82v8.2l1.1,0.6c1.2,0.6,2,1.8,2,3.2c0,1.4-0.7,2.6-2,3.2L82,77.8V114    c0,6.6,5.4,12,12,12s12-5.4,12-12V77.8l-1.1-0.6c-1.2-0.6-2-1.8-2-3.2C102.9,72.6,103.7,71.4,104.9,70.8z M93.8,6h0.4l0.5,5.2    c0,0.3-0.1,0.5-0.2,0.6S94.3,12,94,12c-0.3,0-0.5-0.1-0.5-0.2s-0.2-0.3-0.2-0.6L93.8,6z M86,67.9V66h16v1.9    c-1.9,1.4-3.1,3.7-3.1,6.1c0,2.5,1.2,4.7,3.1,6.1V112H86V80.1c1.9-1.4,3.1-3.7,3.1-6.1C89.1,71.5,87.9,69.3,86,67.9z M94,122    c-3.7,0-6.8-2.6-7.7-6h15.5C100.8,119.4,97.7,122,94,122z" fill="#3EBBC4"/></g></g></svg>