<?xml version="1.0" encoding="iso-8859-1"?>
<!-- Generator: Adobe Illustrator 17.1.0, SVG Export Plug-In . SVG Version: 6.00 Build 0)  -->
<!DOCTYPE svg PUBLIC "-//W3C//DTD SVG 1.0//EN" "http://www.w3.org/TR/2001/REC-SVG-20010904/DTD/svg10.dtd">
<svg version="1.0" xmlns="http://www.w3.org/2000/svg" xmlns:xlink="http://www.w3.org/1999/xlink" x="0px" y="0px" width="110px"
	 height="110px" viewBox="0 0 110 110" style="enable-background:new 0 0 110 110;" xml:space="preserve">
<g id="Artboard">
</g>
<g id="Multicolor">
	<circle style="fill:#FABC3D;" cx="55" cy="55" r="55"/>
	<g>
		<path style="fill:#FFFFFF;" d="M59,81c0,3.314-2.686,6-6,6H29c-3.314,0-6-2.686-6-6V29c0-3.314,2.686-6,6-6h24
			c3.314,0,6,2.686,6,6V81z"/>
		<rect x="25" y="35" style="fill:#3E3E3F;" width="32" height="40"/>
		<circle style="fill:#CFD3D4;" cx="34" cy="30" r="1"/>
		<path style="fill:#CFD3D4;" d="M49,30c0,0.552-0.448,1-1,1H38c-0.552,0-1-0.448-1-1s0.448-1,1-1h10C48.552,29,49,29.448,49,30z"/>
		<circle style="fill:#CFD3D4;" cx="41" cy="81" r="4"/>
		<rect x="39" y="79" style="fill:#FFFFFF;" width="4" height="4"/>
		<polygon style="fill:#5B5C5F;" points="57,39.676 57,35 25,35 25,71.676 		"/>
		<path style="fill:#F0F1F1;" d="M67,27c-11.046,0-20,6.321-20,14.118c0,3.817,2.155,7.274,5.642,9.814L48,63l12.103-8.645
			c2.153,0.559,4.47,0.88,6.897,0.88c11.046,0,20-6.321,20-14.118S78.046,27,67,27z"/>
		<path style="fill:#FFFFFF;" d="M67,27c-11.046,0-20,6.321-20,14.118c0,3.817,2.155,7.274,5.642,9.814L48,63l0.431-0.308
			l32.008-32.008C76.887,28.403,72.181,27,67,27z"/>
		<circle style="fill:#21B2D1;" cx="59" cy="41" r="2"/>
		<circle style="fill:#21B2D1;" cx="67" cy="41" r="2"/>
		<circle style="fill:#21B2D1;" cx="75" cy="41" r="2"/>
	</g>
</g>
</svg>
