<?xml version="1.0" ?><svg enable-background="new 0 0 32 32" version="1.1" viewBox="0 0 32 32" xml:space="preserve" xmlns="http://www.w3.org/2000/svg" xmlns:xlink="http://www.w3.org/1999/xlink"><g id="Layer_6"/><g id="Layer_4_copy_2"><g><circle cx="16" cy="16" fill="#D3D3D3" r="16"/><circle cx="16" cy="16" fill="#FFFFFF" r="13.809"/><circle cx="16" cy="16" r="11.597"/></g></g><g id="Official_copy_3"><path d="M22.224,13.251c0,3.623-2.014,6.33-4.983,6.33c-0.998,0-1.935-0.539-2.256-1.152   c0,0-0.536,2.128-0.649,2.539c-0.4,1.451-1.576,2.903-1.667,3.022c-0.064,0.083-0.204,0.057-0.22-0.053   c-0.025-0.185-0.325-2.016,0.028-3.51c0.177-0.75,1.188-5.033,1.188-5.033s-0.294-0.59-0.294-1.461   c0-1.369,0.793-2.391,1.781-2.391c0.84,0,1.245,0.63,1.245,1.386c0,0.845-0.537,2.108-0.815,3.277   c-0.232,0.98,0.491,1.779,1.458,1.779c1.75,0,2.928-2.248,2.928-4.911c0-2.024-1.363-3.539-3.843-3.539   c-2.801,0-4.547,2.089-4.547,4.423c0,0.805,0.238,1.373,0.61,1.811c0.17,0.202,0.195,0.283,0.133,0.515   c-0.045,0.17-0.146,0.579-0.189,0.741c-0.061,0.234-0.251,0.317-0.462,0.231c-1.29-0.527-1.891-1.94-1.891-3.529   c0-2.623,2.213-5.77,6.601-5.77C19.904,7.96,22.224,10.511,22.224,13.251z" fill="#FFFFFF"/></g></svg>