<?xml version="1.0" ?><svg enable-background="new 0 0 32 32" version="1.1" viewBox="0 0 32 32" xml:space="preserve" xmlns="http://www.w3.org/2000/svg" xmlns:xlink="http://www.w3.org/1999/xlink"><g id="Layer_6"/><g id="Layer_4_copy_2"><g><circle cx="16" cy="16" fill="#D3D3D3" r="16"/><circle cx="16" cy="16" fill="#FFFFFF" r="13.809"/><circle cx="16" cy="16" r="11.597"/></g></g><g id="Official_copy_3"><path d="M21.012,9.317H10.988c-0.944,0-1.671,0.727-1.671,1.671v10.024c0,0.943,0.727,1.671,1.671,1.671h10.024   c0.943,0,1.671-0.728,1.671-1.671V10.988C22.683,10.044,21.955,9.317,21.012,9.317z M16.01,13.375c1.482,0,2.684,1.164,2.684,2.6   c0,1.436-1.201,2.6-2.684,2.6c-1.481,0-2.683-1.165-2.683-2.6C13.327,14.539,14.529,13.375,16.01,13.375z M21.012,20.594   c0,0.293-0.125,0.418-0.418,0.418h-9.189c-0.292,0-0.418-0.125-0.418-0.418v-5.847l1.041,0.226   c-0.112,0.363-0.172,0.748-0.172,1.147c0,2.221,1.86,4.024,4.153,4.024c2.294,0,4.153-1.802,4.153-4.024   c0-0.399-0.061-0.783-0.172-1.147l1.021-0.226V20.594z M21.012,13.076c0,0.231-0.187,0.418-0.418,0.418h-1.671   c-0.231,0-0.418-0.187-0.418-0.418v-1.671c0-0.231,0.187-0.418,0.418-0.418h1.671c0.231,0,0.418,0.187,0.418,0.418V13.076z" fill="#FFFFFF"/></g></svg>