<?xml version="1.0" ?><svg enable-background="new 0 0 32 32" version="1.1" viewBox="0 0 32 32" xml:space="preserve" xmlns="http://www.w3.org/2000/svg" xmlns:xlink="http://www.w3.org/1999/xlink"><g id="Layer_6"/><g id="Layer_4_copy_2"><g><circle cx="16" cy="16" fill="#D3D3D3" r="16"/><circle cx="16" cy="16" fill="#FFFFFF" r="13.809"/><circle cx="16" cy="16" r="11.597"/></g></g><g id="Official_copy_3"><path d="M22.774,21.474v-5.01c0-2.684-1.433-3.933-3.343-3.933c-1.542,0-2.232,0.848-2.617,1.443v-1.238h-2.904   c0.038,0.82,0,8.737,0,8.737h2.904v-4.88c0-0.26,0.019-0.521,0.096-0.708c0.21-0.522,0.687-1.062,1.489-1.062   c1.051,0,1.471,0.801,1.471,1.975v4.675L22.774,21.474L22.774,21.474z M10.85,11.545c1.012,0,1.643-0.672,1.643-1.51   c-0.019-0.857-0.631-1.509-1.624-1.509s-1.643,0.652-1.643,1.509c0,0.839,0.63,1.51,1.605,1.51H10.85z M12.302,21.474v-8.737H9.398   v8.737H12.302z" fill="#FFFFFF"/></g></svg>