<?xml version="1.0" ?><svg enable-background="new 0 0 32 32" version="1.1" viewBox="0 0 32 32" xml:space="preserve" xmlns="http://www.w3.org/2000/svg" xmlns:xlink="http://www.w3.org/1999/xlink"><g id="Layer_6"/><g id="Layer_4_copy_2"><g><circle cx="16" cy="16" fill="#D3D3D3" r="16"/><circle cx="16" cy="16" fill="#FFFFFF" r="13.809"/><circle cx="16" cy="16" r="11.597"/></g></g><g id="Official_copy_3"><g><path d="M23.331,12.81c0,0-0.146-1.1-0.594-1.585c-0.569-0.635-1.207-0.639-1.499-0.675    c-2.094-0.162-5.234-0.162-5.234-0.162h-0.007c0,0-3.14,0-5.234,0.162c-0.292,0.036-0.929,0.04-1.499,0.675    C8.816,11.71,8.669,12.81,8.669,12.81s-0.15,1.291-0.15,2.582v1.21c0,1.292,0.15,2.583,0.15,2.583s0.146,1.1,0.594,1.584    c0.57,0.635,1.316,0.616,1.649,0.682C12.11,21.574,16,21.612,16,21.612s3.144-0.006,5.237-0.166    c0.292-0.037,0.93-0.041,1.499-0.676c0.448-0.484,0.594-1.583,0.594-1.583s0.15-1.291,0.15-2.583v-1.21    C23.48,14.101,23.331,12.81,23.331,12.81z M14.132,18.806v-5.612L18.808,16L14.132,18.806z" fill="#FFFFFF"/></g></g></svg>