<?xml version="1.0" ?><svg enable-background="new 0 0 32 32" version="1.1" viewBox="0 0 32 32" xml:space="preserve" xmlns="http://www.w3.org/2000/svg" xmlns:xlink="http://www.w3.org/1999/xlink"><g id="Layer_6"/><g id="Layer_4_copy_2"><g><circle cx="16" cy="16" fill="#D3D3D3" r="16"/><circle cx="16" cy="16" fill="#FFFFFF" r="13.809"/><circle cx="16" cy="16" r="11.597"/></g></g><g id="Official_copy_3"><path d="M18.049,10.261c-1.283,0.467-2.093,1.671-2.001,2.988l0.031,0.508l-0.513-0.062   c-1.868-0.239-3.5-1.048-4.885-2.407l-0.677-0.674l-0.174,0.498c-0.369,1.11-0.133,2.283,0.636,3.072   c0.41,0.436,0.318,0.498-0.39,0.239c-0.246-0.083-0.462-0.145-0.482-0.114c-0.072,0.073,0.174,1.017,0.369,1.391   c0.267,0.519,0.811,1.027,1.406,1.328l0.503,0.239l-0.595,0.01c-0.575,0-0.595,0.01-0.533,0.229   c0.205,0.674,1.016,1.391,1.919,1.702l0.636,0.217l-0.554,0.332c-0.821,0.478-1.786,0.747-2.751,0.768   c-0.462,0.01-0.842,0.052-0.842,0.083c0,0.103,1.252,0.684,1.981,0.913c2.186,0.674,4.783,0.384,6.733-0.768   c1.386-0.82,2.771-2.449,3.418-4.027c0.349-0.84,0.698-2.376,0.698-3.112c0-0.478,0.031-0.54,0.605-1.11   c0.339-0.332,0.657-0.695,0.719-0.799c0.103-0.197,0.092-0.197-0.431-0.021c-0.872,0.312-0.996,0.27-0.564-0.197   c0.318-0.332,0.698-0.934,0.698-1.11c0-0.031-0.154,0.021-0.329,0.114c-0.185,0.104-0.595,0.26-0.903,0.353l-0.554,0.177   l-0.503-0.343c-0.277-0.187-0.667-0.394-0.872-0.456C19.322,10.074,18.522,10.095,18.049,10.261z" fill="#FFFFFF"/></g></svg>