<?xml version="1.0" ?><!DOCTYPE svg  PUBLIC '-//W3C//DTD SVG 1.1//EN'  'http://www.w3.org/Graphics/SVG/1.1/DTD/svg11.dtd'><svg enable-background="new 0 0 128 128" id="Слой_1" version="1.1" viewBox="0 0 128 128" xml:space="preserve" xmlns="http://www.w3.org/2000/svg" xmlns:xlink="http://www.w3.org/1999/xlink"><g><path d="M109.5,14.5H52v33h21v10h5h2c1.7,0,3,1.3,3,3l0,21.8h-5.7h-0.6L60.2,93.1v13.4c0,3.9,3.1,7,7,7h37.4   c3.9,0,7-3.1,7-7V95.1v-3.6v-0.2l-5.5-7.5l0-36.2h3.5c9.1,0,16.5-7.4,16.5-16.5S118.6,14.5,109.5,14.5z M77,53.5v-6h1v6H77z    M107.5,106.5c0,1.7-1.3,3-3,3H67.2c-1.7,0-3-1.3-3-3V95.3l13.4-8.8l7.9,8.6h22.1V106.5z M109.5,43.5H102l0,41.5l4.4,6.1H87.2   l-4.4-4.8h3.5H87l0-25.8c0-3.2-2.1-5.8-5-6.7v-6.3h5v-4h-5h-2H56v-3h8.5v-4H56V33h8.5v-4H56v-3.5h8.5v-4H56v-3h53.5   c6.9,0,12.5,5.6,12.5,12.5S116.4,43.5,109.5,43.5z" fill="#3EBBC4"/><path d="M36,43.4L36,43.4l14,0.1v-25H36v0.1C30.3,19,25.8,23.4,25.1,29H4v4h21.1C25.8,38.6,30.3,43,36,43.4z    M40,22.5h6v17h-6V22.5z M29,30.5c0-4.1,3.1-7.4,7-7.9v16.9c-3.9-0.5-7-3.9-7-7.9V30.5z" fill="#3EBBC4"/><rect fill="#3EBBC4" height="4" width="10" x="102" y="20.5"/><rect fill="#3EBBC4" height="4" width="10" x="102" y="26.5"/></g></svg>