<?xml version="1.0" ?><svg enable-background="new 0 0 32 32" version="1.1" viewBox="0 0 32 32" xml:space="preserve" xmlns="http://www.w3.org/2000/svg" xmlns:xlink="http://www.w3.org/1999/xlink"><g id="Layer_6"/><g id="Layer_4_copy_2"><g><circle cx="16" cy="16" fill="#D3D3D3" r="16"/><circle cx="16" cy="16" fill="#FFFFFF" r="13.809"/><circle cx="16" cy="16" r="11.597"/></g></g><g id="Official_copy_3"><g><g><path d="M20.132,18.422c-0.117,0-0.201,0.033-0.252,0.103c-0.051,0.066-0.076,0.178-0.076,0.335v0.377h0.649     v-0.377c0-0.156-0.026-0.269-0.078-0.335C20.326,18.455,20.244,18.422,20.132,18.422z" fill="#FFFFFF"/><path d="M17.602,18.409c-0.053,0-0.105,0.011-0.156,0.036c-0.051,0.024-0.101,0.063-0.151,0.114v2.326     c0.059,0.06,0.118,0.106,0.174,0.132c0.056,0.026,0.115,0.04,0.177,0.04c0.09,0,0.156-0.026,0.198-0.079     c0.042-0.052,0.064-0.137,0.064-0.257v-1.928c0-0.126-0.026-0.222-0.078-0.287C17.777,18.441,17.7,18.409,17.602,18.409z" fill="#FFFFFF"/><path d="M21.68,15.516c-0.603-0.602-5.683-0.61-5.683-0.61s-5.079,0.008-5.683,0.61     c-0.604,0.603-0.606,3.58-0.606,3.597c0,0.023,0.001,2.994,0.606,3.598c0.604,0.602,5.683,0.615,5.683,0.615     s5.08-0.013,5.683-0.614c0.607-0.605,0.612-3.598,0.612-3.598C22.292,19.096,22.285,16.119,21.68,15.516z M13.582,17.27h-0.855     v4.324h-0.828V17.27h-0.855v-0.735h2.538V17.27z M16,21.594h-0.733v-0.41c-0.137,0.152-0.277,0.267-0.424,0.346     c-0.147,0.08-0.288,0.119-0.426,0.119c-0.17,0-0.296-0.054-0.384-0.167c-0.085-0.112-0.128-0.277-0.128-0.5v-3.121h0.733v2.863     c0,0.089,0.016,0.152,0.045,0.192c0.032,0.04,0.082,0.059,0.151,0.059c0.054,0,0.123-0.026,0.205-0.079     c0.083-0.053,0.158-0.119,0.228-0.2v-2.836H16V21.594z M18.663,20.823c0,0.264-0.058,0.466-0.173,0.608     c-0.114,0.141-0.281,0.211-0.499,0.211c-0.144,0-0.272-0.026-0.383-0.081c-0.112-0.054-0.218-0.137-0.314-0.253v0.286h-0.742     v-5.059h0.742v1.629c0.1-0.114,0.204-0.201,0.315-0.259c0.112-0.06,0.225-0.089,0.338-0.089c0.233,0,0.41,0.079,0.532,0.238     c0.124,0.159,0.184,0.392,0.184,0.698V20.823z M21.208,19.818h-1.404v0.702c0,0.197,0.024,0.333,0.071,0.41     c0.05,0.076,0.132,0.113,0.249,0.113c0.122,0,0.206-0.032,0.255-0.096c0.048-0.064,0.074-0.206,0.074-0.426v-0.17h0.755v0.192     c0,0.383-0.091,0.671-0.276,0.866c-0.183,0.193-0.458,0.289-0.823,0.289c-0.328,0-0.588-0.102-0.777-0.307     c-0.188-0.204-0.284-0.487-0.284-0.847v-1.676c0-0.323,0.105-0.588,0.312-0.791c0.207-0.204,0.474-0.306,0.804-0.306     c0.336,0,0.594,0.095,0.775,0.283c0.18,0.188,0.27,0.46,0.27,0.814V19.818z" fill="#FFFFFF"/></g><path d="M20.129,13.34h-0.827v-0.454c-0.151,0.167-0.309,0.296-0.475,0.382c-0.165,0.087-0.324,0.131-0.479,0.131    c-0.193,0-0.335-0.061-0.432-0.184c-0.096-0.122-0.145-0.306-0.145-0.551V9.228h0.825v3.152c0,0.097,0.019,0.168,0.053,0.211    c0.034,0.044,0.091,0.066,0.168,0.066c0.06,0,0.138-0.029,0.23-0.087c0.093-0.058,0.178-0.131,0.254-0.222V9.228h0.827    L20.129,13.34L20.129,13.34z" fill="#FFFFFF"/><path d="M16.774,9.424c-0.219-0.199-0.5-0.299-0.841-0.299c-0.375,0-0.674,0.095-0.896,0.283    c-0.223,0.188-0.334,0.442-0.334,0.761V12.3c0,0.349,0.109,0.627,0.325,0.834c0.217,0.206,0.507,0.309,0.868,0.309    c0.376,0,0.67-0.1,0.886-0.3c0.213-0.201,0.32-0.476,0.32-0.828v-2.124C17.101,9.879,16.992,9.622,16.774,9.424z M16.259,12.378    c0,0.109-0.033,0.196-0.099,0.26c-0.066,0.062-0.155,0.094-0.267,0.094c-0.11,0-0.194-0.03-0.252-0.092    c-0.058-0.063-0.089-0.149-0.089-0.262v-2.24c0-0.09,0.032-0.163,0.095-0.218c0.063-0.055,0.145-0.082,0.246-0.082    c0.108,0,0.197,0.027,0.264,0.082c0.068,0.055,0.101,0.128,0.101,0.218V12.378z" fill="#FFFFFF"/><polygon fill="#FFFFFF" points="12.452,7.767 11.515,7.767 12.622,11.132 12.622,13.34 13.553,13.34 13.553,11.028 14.635,7.767     13.689,7.767 13.115,9.995 13.056,9.995   "/></g></g></svg>