<?xml version="1.0" standalone="no"?>
<!DOCTYPE svg PUBLIC "-//W3C//DTD SVG 20010904//EN"
 "http://www.w3.org/TR/2001/REC-SVG-20010904/DTD/svg10.dtd">
<svg version="1.0" xmlns="http://www.w3.org/2000/svg"
 width="1227.000000pt" height="1280.000000pt" viewBox="0 0 1227.000000 1280.000000"
 preserveAspectRatio="xMidYMid meet">
<metadata>
Created by potrace 1.15, written by Peter Selinger 2001-2017
</metadata>
<g transform="translate(0.000000,1280.000000) scale(0.100000,-0.100000)"
fill="#9e9e9e" stroke="none">
<path d="M10435 12791 c-557 -56 -1471 -467 -2697 -1212 -216 -131 -552 -344
-597 -379 l-21 -15 65 -1355 c35 -745 63 -1355 62 -1356 -1 -1 -45 7 -97 18
-52 10 -898 176 -1879 368 -1713 335 -1786 348 -1807 332 -12 -9 -408 -352
-878 -762 l-855 -745 831 -831 c785 -786 832 -831 857 -823 26 8 2645 784
3041 900 113 33 232 69 265 79 33 10 407 121 830 246 424 125 773 229 776 233
4 3 -42 121 -102 261 -60 140 -134 316 -165 390 -71 174 -72 176 -98 187 -11
6 -90 23 -173 39 -151 29 -153 29 -153 55 0 15 52 509 115 1098 63 590 115
1075 115 1079 0 4 69 18 153 31 1301 200 2460 444 3104 652 518 168 777 320
843 497 48 125 62 271 39 384 -28 137 -147 308 -272 391 -173 115 -366 181
-654 223 -123 18 -525 27 -648 15z m-340 -368 c-22 -8 -92 -36 -155 -61 -169
-66 -399 -172 -820 -377 -387 -189 -550 -263 -550 -251 0 7 298 165 525 279
221 110 446 214 605 279 106 44 402 147 420 147 8 0 -3 -7 -25 -16z m1565
-180 c53 -60 74 -117 74 -203 0 -162 -39 -212 -248 -315 -246 -121 -535 -214
-1120 -361 -98 -25 -182 -44 -187 -42 -5 2 73 27 173 57 264 77 841 270 993
331 190 76 241 105 271 155 60 104 38 317 -45 434 -12 16 -21 32 -21 36 0 11
75 -52 110 -92z m-3201 -659 c-15 -122 -6 -303 19 -376 26 -78 64 -132 114
-165 l41 -28 -99 -17 c-152 -25 -654 -105 -794 -126 -119 -17 -125 -19 -128
-42 -2 -14 -32 -286 -66 -605 -35 -319 -66 -573 -68 -565 -8 21 -68 1371 -63
1381 16 25 1042 645 1052 635 2 -1 -2 -43 -8 -92z"/>
<path d="M1110 5615 l0 -115 -54 0 c-29 0 -73 -7 -97 -15 -57 -20 -122 -85
-149 -146 -20 -48 -20 -60 -18 -621 l3 -573 23 -45 c33 -63 59 -89 117 -116
36 -17 68 -24 113 -24 l62 0 -2 -977 -3 -978 -465 -5 -465 -5 -46 -27 c-49
-29 -93 -84 -115 -145 -20 -58 -20 -1109 1 -1179 18 -60 72 -127 129 -157 40
-22 48 -22 504 -25 l462 -3 0 -229 0 -230 4970 0 4970 0 0 288 0 288 29 22
c16 11 43 49 60 83 l31 62 0 567 0 567 -31 62 c-17 34 -44 72 -60 83 -29 22
-29 23 -29 125 l0 103 513 0 c474 0 515 2 552 19 56 25 112 87 135 149 19 50
20 79 20 596 0 630 2 616 -83 700 -33 33 -67 56 -93 64 -30 9 -178 12 -543 12
l-502 0 3 126 3 127 42 12 c66 20 131 62 164 107 58 80 59 96 59 619 0 297 -4
496 -11 526 -20 94 -104 179 -205 209 l-54 15 0 100 0 99 -4970 0 -4970 0 0
-115z"/>
</g>
</svg>
