<?xml version="1.0" encoding="iso-8859-1"?>
<!-- Generator: Adobe Illustrator 19.0.0, SVG Export Plug-In . SVG Version: 6.00 Build 0)  -->
<svg version="1.1" id="Layer_1" xmlns="http://www.w3.org/2000/svg" xmlns:xlink="http://www.w3.org/1999/xlink" x="0px" y="0px"
	 viewBox="0 0 512 512" style="enable-background:new 0 0 512 512;" xml:space="preserve">
<g>
	<g>
		<g>
			<path d="M375.9,264.191v-137.44c13.788-3.494,24.017-16.009,24.017-30.867V31.838C399.918,14.283,385.636,0,368.08,0H143.918
				c-17.556,0-31.838,14.283-31.838,31.838v64.046c0,14.858,10.231,27.373,24.017,30.867v137.44H72.052V512h367.897V264.191H375.9z
				 M127.721,95.885V31.838c0-8.93,7.266-16.196,16.196-16.196H368.08c8.93,0,16.196,7.266,16.196,16.196v64.046
				c0,8.93-7.266,16.196-16.196,16.196h-7.821v152.11h-208.52V112.081h-7.821C134.987,112.081,127.721,104.815,127.721,95.885z
				 M424.307,464.335h-0.001h-32.209v15.642h32.209v16.382H87.693v-16.382h32.208v-15.642H87.693V279.833h48.404v184.503h-8.191
				v15.642h32.023v-15.642h-8.191V279.833H360.26v184.503h-8.191v15.642h32.023v-15.642h-8.191V279.833h48.405V464.335z"/>
			<rect x="167.938" y="464.335" width="176.124" height="15.642"/>
		</g>
	</g>
</g>
<g>
</g>
<g>
</g>
<g>
</g>
<g>
</g>
<g>
</g>
<g>
</g>
<g>
</g>
<g>
</g>
<g>
</g>
<g>
</g>
<g>
</g>
<g>
</g>
<g>
</g>
<g>
</g>
<g>
</g>
</svg>
