<?xml version="1.0" standalone="no"?>
<!DOCTYPE svg PUBLIC "-//W3C//DTD SVG 20010904//EN"
 "http://www.w3.org/TR/2001/REC-SVG-20010904/DTD/svg10.dtd">
<svg version="1.0" xmlns="http://www.w3.org/2000/svg"
 width="902.000000pt" height="1280.000000pt" viewBox="0 0 902.000000 1280.000000"
 preserveAspectRatio="xMidYMid meet">
<metadata>
Created by potrace 1.15, written by Peter Selinger 2001-2017
</metadata>
<g transform="translate(0.000000,1280.000000) scale(0.100000,-0.100000)"
fill="#9e9e9e" stroke="none">
<path d="M4680 12793 c-19 -3 -147 -27 -284 -54 -137 -27 -261 -49 -276 -49
-16 0 -37 -11 -55 -30 -19 -20 -45 -33 -82 -40 -30 -7 -87 -27 -127 -46 -40
-19 -100 -40 -133 -47 -33 -7 -66 -17 -74 -23 -20 -16 -52 -23 -158 -34 -60
-6 -98 -15 -105 -24 -25 -33 -293 -53 -481 -37 -158 13 -526 102 -593 143 -34
21 -238 77 -281 78 -14 0 -33 8 -43 17 -15 13 -39 17 -101 18 -45 1 -174 7
-287 14 -243 16 -406 6 -575 -33 -180 -41 -238 -62 -276 -99 -22 -22 -49 -36
-74 -41 -47 -8 -136 -45 -150 -63 -5 -7 -32 -17 -60 -22 -50 -9 -58 -16 -132
-105 -13 -15 -32 -26 -46 -26 -22 0 -27 -6 -37 -52 -39 -179 -62 -328 -67
-433 l-6 -120 59 -59 c32 -32 104 -95 159 -140 55 -45 126 -107 157 -139 53
-54 62 -59 120 -68 35 -5 137 -32 228 -58 268 -79 245 -76 554 -73 231 2 289
0 344 -14 88 -22 160 -15 362 34 163 41 446 97 643 128 56 9 161 17 232 17
119 1 135 -1 195 -26 57 -24 66 -25 81 -11 22 20 215 18 223 -3 3 -7 14 -13
25 -13 19 0 37 -10 140 -76 42 -27 60 -32 137 -37 62 -3 126 -16 208 -42 66
-20 148 -39 183 -42 35 -3 62 -9 60 -12 -52 -94 -62 -201 -48 -520 6 -141 8
-281 5 -311 -5 -42 -1 -68 15 -110 22 -57 27 -134 12 -159 -7 -10 -54 -16
-187 -22 -196 -9 -228 -14 -263 -36 -12 -8 -32 -13 -42 -10 -10 3 -30 -3 -43
-14 -13 -10 -34 -19 -45 -19 -19 0 -21 -6 -21 -74 0 -41 -7 -110 -15 -153 -8
-43 -15 -93 -15 -111 0 -19 -6 -48 -14 -65 -14 -33 -32 -149 -41 -275 -3 -41
-12 -86 -20 -102 -19 -37 -19 -101 1 -175 8 -33 16 -82 17 -108 l2 -49 60 -25
c33 -14 80 -26 105 -27 42 -1 45 1 43 24 -1 22 3 25 35 25 31 0 40 6 65 43 23
35 33 42 50 36 41 -12 42 -11 39 62 -3 52 0 73 11 82 12 10 15 5 19 -38 7 -73
28 -90 28 -22 0 48 3 54 30 54 3 1 17 -2 33 -6 l27 -6 0 98 0 99 -42 19 c-24
10 -55 27 -70 38 -21 15 -52 20 -151 26 -68 4 -135 13 -148 21 l-24 12 30 13
c17 7 64 16 105 20 41 3 85 10 97 15 17 6 32 2 58 -15 20 -14 72 -38 116 -55
50 -19 99 -47 127 -71 48 -43 93 -61 100 -41 6 18 52 38 116 50 57 10 106 33
106 49 0 4 -29 6 -65 4 -37 -2 -109 5 -173 17 -60 12 -130 21 -156 21 -63 0
-86 13 -86 50 0 26 3 30 29 30 28 0 55 17 63 40 2 7 17 5 42 -5 36 -15 40 -15
55 0 14 14 14 17 1 25 -13 9 -13 11 0 20 8 5 27 10 43 10 32 0 35 18 10 49
-11 13 -43 27 -83 36 -134 31 -365 72 -377 68 -8 -3 -13 -23 -13 -50 0 -39 2
-44 18 -38 33 13 37 10 34 -22 -2 -29 2 -34 33 -47 24 -10 35 -21 35 -35 0
-19 -6 -21 -75 -21 l-75 0 0 155 c0 150 1 155 23 166 12 7 36 15 52 19 23 4
31 12 33 33 3 23 8 27 37 27 26 0 39 6 51 24 20 31 63 46 159 55 l75 7 0 -36
c1 -28 11 -46 50 -88 l49 -52 93 -9 c105 -10 119 -9 418 21 136 13 221 26 231
35 8 7 27 13 41 13 17 0 38 14 66 45 46 50 61 54 103 25 15 -12 54 -25 86 -31
159 -28 237 -55 227 -79 -4 -8 -11 -44 -16 -80 -4 -36 -13 -75 -18 -87 -7 -18
-5 -23 10 -28 24 -8 40 -61 40 -136 l0 -56 -62 -6 c-35 -3 -126 -23 -203 -43
-113 -29 -157 -36 -230 -35 -57 0 -99 -5 -114 -13 -22 -12 -19 -13 37 -19 33
-4 102 -18 154 -33 l93 -26 85 52 c46 28 94 52 105 55 11 2 60 13 109 25 90
21 135 20 156 -4 17 -22 -50 -47 -153 -57 -51 -4 -93 -9 -94 -9 -2 0 -3 -7 -3
-15 0 -10 -10 -15 -30 -15 -20 0 -30 -5 -30 -15 0 -10 -10 -15 -31 -15 -23 0
-30 -4 -25 -15 6 -17 -22 -35 -58 -35 -50 0 -78 -30 -41 -44 20 -7 19 -33 -1
-44 -15 -8 -15 -19 0 -138 9 -71 17 -156 19 -189 2 -60 2 -60 34 -63 47 -5
102 25 121 65 13 27 21 33 48 33 45 0 52 16 10 24 -32 6 -33 8 -32 51 1 48 20
65 73 65 21 0 24 4 20 21 -8 30 1 48 34 65 39 20 36 32 -8 36 -51 4 -56 28 -6
28 21 0 53 9 73 21 32 20 33 23 15 30 -11 4 -30 8 -42 8 -13 1 -23 6 -23 12 0
7 9 9 23 6 36 -10 51 6 44 47 -7 42 4 53 26 28 31 -34 45 -88 57 -216 6 -71
18 -146 27 -165 l15 -36 16 35 c12 26 17 86 22 225 4 105 10 198 14 207 9 20
7 22 -92 129 -103 112 -119 159 -87 265 8 27 15 70 15 97 0 46 -2 49 -46 77
-58 36 -106 53 -307 104 l-158 41 -5 116 c-3 66 0 136 6 163 7 30 7 53 1 60
-14 16 -17 277 -7 560 l9 249 -44 -7 c-24 -4 -82 -18 -129 -32 -46 -13 -92
-24 -102 -24 -14 0 -18 -11 -20 -71 l-3 -72 -55 -14 c-71 -18 -89 -35 -57 -52
32 -17 57 -62 57 -103 0 -42 -15 -58 -53 -58 -23 0 -28 -4 -23 -16 4 -9 11
-60 16 -113 6 -53 13 -104 16 -113 11 -36 24 -16 24 36 0 30 5 58 10 61 7 4
10 -53 10 -164 0 -166 -1 -171 -22 -182 -35 -18 -38 -27 -38 -116 0 -70 3 -86
20 -103 11 -11 24 -20 29 -20 4 0 11 -23 14 -51 4 -28 11 -57 18 -65 21 -26
-39 -37 -218 -42 l-173 -4 15 36 c10 25 15 71 15 154 0 103 -3 129 -25 186
-14 37 -25 74 -25 83 0 14 2 14 20 -2 11 -10 21 -16 23 -14 5 7 -10 231 -18
264 -5 25 -3 32 16 40 31 14 43 61 23 95 -15 24 -14 31 0 80 20 69 21 126 1
134 -11 4 -15 -2 -15 -22 0 -36 -16 -60 -30 -46 -13 13 2 89 25 135 8 15 15
39 15 53 0 19 -4 23 -20 19 -17 -5 -20 0 -20 31 l0 36 -70 0 c-53 0 -70 3 -70
14 0 21 104 28 320 21 213 -7 427 12 442 39 5 8 45 18 105 26 54 7 117 21 140
32 23 11 47 16 54 13 6 -4 25 7 43 24 41 40 116 61 217 61 59 0 82 4 100 19
40 31 122 69 190 87 49 14 100 18 219 17 150 0 158 -2 260 -36 58 -19 123 -38
145 -42 84 -14 146 -29 151 -37 3 -4 18 -8 34 -8 17 0 69 -11 116 -25 161 -47
426 -95 482 -88 39 4 64 1 99 -13 123 -49 722 0 863 71 25 12 86 39 135 60
112 46 128 55 298 178 102 73 141 107 151 132 8 18 27 39 42 47 15 7 36 29 47
48 10 19 23 37 28 38 5 2 9 107 9 233 l0 229 -84 103 c-51 63 -99 110 -122
122 -21 11 -46 28 -55 37 -10 9 -33 24 -51 34 -18 9 -55 32 -83 52 -33 23 -72
40 -114 49 -36 7 -73 21 -82 29 -10 9 -66 32 -126 51 -104 34 -115 35 -293 40
-110 3 -230 0 -295 -6 -60 -7 -146 -15 -190 -18 -45 -3 -87 -11 -96 -19 -8 -7
-28 -13 -45 -13 -48 2 -294 -56 -362 -85 -35 -15 -100 -32 -144 -38 -71 -10
-87 -16 -119 -45 -20 -18 -59 -40 -85 -47 -133 -39 -352 -47 -531 -20 -58 8
-112 13 -119 10 -26 -10 -236 66 -275 100 -30 26 -135 56 -220 63 -82 6 -88 8
-115 40 -27 32 -29 33 -83 27 -48 -5 -59 -4 -72 12 -10 12 -41 24 -79 30 -35
7 -73 18 -86 27 -13 8 -37 15 -54 15 -20 0 -30 5 -30 15 0 9 -9 15 -25 15 -16
0 -25 6 -25 15 0 10 -10 15 -30 15 -20 0 -30 5 -30 15 0 31 -94 42 -220 28z
m1300 -918 c0 -14 -4 -25 -10 -25 -5 0 -10 11 -10 25 0 14 5 25 10 25 6 0 10
-11 10 -25z"/>
<path d="M5172 9694 c-52 -24 -75 -41 -82 -59 -6 -15 -10 -27 -10 -28 0 -1 46
-3 103 -5 94 -3 107 -1 159 24 53 25 59 26 88 12 17 -8 42 -13 55 -11 26 5 72
49 62 59 -18 19 -149 44 -222 43 -69 -1 -90 -5 -153 -35z"/>
<path d="M5300 9499 c-72 -11 -171 -18 -266 -18 -107 -1 -163 -5 -195 -16 -40
-14 -50 -14 -99 1 -30 9 -71 17 -90 18 -30 1 -36 -3 -38 -23 -3 -20 -8 -22
-34 -17 -24 5 -29 3 -26 -11 2 -10 12 -19 23 -21 60 -9 65 -12 65 -42 0 -34
15 -38 70 -19 26 9 34 9 41 -2 6 -10 -1 -22 -23 -40 l-32 -27 50 -10 c94 -20
191 -24 300 -13 155 16 388 52 397 60 4 4 12 33 17 64 5 31 14 66 21 79 13 22
13 22 19 -15 11 -64 34 -64 34 0 0 46 -32 73 -83 72 -20 -1 -88 -10 -151 -20z"/>
<path d="M4585 9141 c-33 -4 -101 -22 -152 -39 -50 -18 -105 -32 -123 -32 -17
0 -44 -7 -59 -15 -30 -15 -49 -55 -26 -55 26 0 53 -51 65 -120 13 -80 10 -284
-5 -299 -7 -7 -63 -6 -170 2 -130 10 -160 15 -160 27 0 10 -11 15 -35 16 -19
0 -62 2 -95 4 -33 2 -75 2 -92 2 -31 -2 -33 -4 -33 -39 0 -23 10 -54 25 -78
26 -42 32 -80 15 -90 -20 -13 -10 -43 19 -55 39 -16 57 -38 66 -80 13 -69 11
-67 86 -74 78 -8 141 -27 147 -44 6 -18 -38 -14 -104 8 -67 23 -111 23 -105 0
2 -8 8 -62 13 -120 7 -80 13 -108 26 -118 16 -12 16 -14 -2 -27 -18 -14 -18
-16 -1 -61 19 -51 13 -89 -26 -166 -11 -21 -19 -45 -19 -54 0 -10 -7 -26 -16
-35 -11 -12 -19 -48 -24 -106 -8 -89 -42 -200 -79 -252 -10 -14 -21 -38 -24
-52 -4 -14 -37 -59 -75 -100 -37 -41 -78 -91 -90 -111 -13 -20 -48 -53 -79
-74 -31 -20 -73 -55 -94 -77 -38 -38 -39 -42 -41 -116 -1 -42 -1 -99 0 -128
l3 -51 -88 -27 c-262 -80 -374 -127 -470 -199 l-63 -46 0 -221 0 -220 64 -82
c85 -109 112 -133 171 -153 28 -9 82 -37 120 -62 l70 -46 -38 -6 c-20 -4 -39
-9 -40 -11 -13 -16 -29 -199 -34 -378 l-6 -213 -51 -24 c-118 -54 -211 -52
-260 7 -24 29 -26 37 -26 139 0 303 -101 460 -296 460 -42 0 -68 -8 -137 -45
-47 -25 -92 -45 -99 -45 -7 0 -45 24 -84 53 -39 30 -132 88 -206 130 -84 48
-140 86 -148 102 -7 14 -21 25 -30 25 -9 0 -37 13 -61 30 -24 16 -49 30 -56
30 -7 0 -16 6 -20 14 -9 17 -88 49 -194 81 -88 25 -112 20 -163 -34 -20 -20
-39 -31 -58 -31 -18 0 -28 -5 -28 -15 0 -10 -10 -15 -29 -15 -31 0 -69 -36
-171 -163 -30 -38 -69 -75 -86 -82 -25 -10 -33 -22 -42 -58 -9 -34 -24 -56
-61 -89 -27 -24 -59 -61 -72 -83 -13 -22 -43 -63 -68 -91 -26 -28 -73 -102
-106 -165 -33 -62 -79 -142 -102 -178 -23 -35 -50 -87 -59 -115 -19 -58 -74
-172 -109 -225 -13 -20 -29 -57 -34 -82 -16 -70 -62 -193 -78 -205 -8 -7 -18
-41 -24 -75 -23 -159 -49 -402 -49 -463 0 -61 2 -68 21 -73 19 -5 21 -11 15
-53 l-6 -47 95 -97 c72 -74 100 -96 114 -91 14 4 24 -3 39 -29 16 -26 25 -33
41 -29 15 4 35 -7 70 -39 27 -24 77 -59 112 -77 145 -77 177 -113 235 -269 31
-81 60 -138 91 -179 34 -47 48 -46 318 12 66 14 152 28 192 32 70 6 71 6 102
49 17 25 45 51 63 60 39 20 186 179 239 259 40 61 73 90 89 80 11 -7 -72 -112
-183 -235 -33 -36 -68 -83 -79 -104 l-20 -39 23 -18 c13 -10 83 -49 154 -86
72 -37 146 -83 166 -100 21 -20 47 -33 62 -33 19 0 31 -8 41 -29 18 -33 29
-39 102 -47 47 -6 56 -11 73 -40 13 -22 31 -36 57 -43 20 -6 78 -34 128 -64
50 -30 141 -82 202 -116 61 -33 127 -77 147 -96 24 -23 46 -35 64 -35 57 0 73
-10 73 -45 0 -27 5 -35 29 -45 62 -25 111 -146 111 -273 0 -58 2 -64 32 -88
30 -25 32 -29 35 -115 2 -49 6 -99 9 -111 5 -25 59 -53 100 -53 17 0 24 -6 24
-19 0 -11 11 -28 25 -39 l25 -20 5 -274 c3 -219 1 -285 -10 -329 -10 -35 -15
-105 -15 -199 0 -80 -5 -172 -10 -205 -7 -40 -6 -70 0 -91 l11 -32 167 -25
c259 -40 496 -63 852 -82 73 -4 129 -12 154 -22 36 -16 39 -16 47 0 12 20 32
22 48 4 15 -19 179 -20 261 -2 63 15 280 36 560 55 180 13 229 19 267 37 17 8
40 13 51 11 10 -2 35 11 55 29 21 18 53 35 74 38 21 4 57 13 80 21 38 14 43
20 57 67 31 110 39 205 33 376 -4 91 -10 190 -13 219 -8 62 -6 61 -139 32 -49
-11 -119 -25 -155 -31 -36 -5 -79 -17 -96 -26 -25 -13 -35 -13 -53 -3 -13 6
-19 15 -15 19 17 14 110 38 297 77 174 35 188 40 194 62 4 18 -3 32 -33 63
-36 36 -37 39 -21 57 21 23 21 33 0 70 -17 29 -16 29 19 66 23 23 44 36 62 36
16 0 26 5 26 15 0 10 10 15 29 15 29 0 41 14 41 50 0 28 25 47 85 65 39 11 72
30 110 65 31 28 60 50 65 50 6 0 10 117 10 325 l0 325 -24 0 c-28 0 -41 14
-50 55 -4 17 -22 46 -40 65 -29 30 -56 85 -56 111 0 5 7 9 16 9 14 0 15 64 12
668 -3 608 -1 673 14 732 16 57 16 66 3 76 -19 14 -19 38 -1 53 12 10 12 18
-1 57 -9 26 -13 62 -10 84 3 21 0 43 -6 49 -8 8 -5 17 11 34 27 28 27 46 5 86
-17 29 -17 31 1 44 19 14 19 30 13 565 -4 303 -4 564 -1 581 5 24 12 31 30 31
36 0 66 16 114 60 25 23 55 46 68 51 12 5 22 15 22 23 0 7 7 27 15 42 19 37
19 132 0 254 -14 89 -53 228 -76 271 -15 30 -87 78 -133 90 -23 6 -54 24 -71
42 -23 25 -56 41 -146 70 -65 21 -135 51 -158 67 l-41 30 0 265 c0 146 -4 265
-9 265 -4 0 -31 18 -60 41 -28 22 -55 38 -61 34 -6 -4 -10 6 -10 25 0 25 -14
44 -74 103 -61 59 -77 82 -90 127 -10 30 -21 63 -27 72 -5 10 -9 31 -9 48 0
19 -5 30 -14 30 -21 0 -30 158 -22 393 5 150 10 202 21 215 8 9 53 59 100 110
47 51 85 99 85 107 0 8 8 18 18 24 15 8 17 26 17 143 0 88 4 140 12 155 12 19
10 22 -15 27 -15 4 -52 -1 -82 -9 -30 -9 -66 -19 -80 -22 -14 -3 -29 -12 -35
-19 -5 -7 -32 -18 -58 -24 -27 -6 -76 -24 -110 -41 -89 -46 -208 -54 -550 -41
-150 5 -297 8 -328 5 -57 -5 -129 10 -129 28 0 5 18 21 41 36 29 19 57 28 100
31 l59 4 0 35 c0 33 1 34 29 28 31 -7 46 11 34 41 -7 20 13 34 50 34 26 0 27
2 27 54 0 58 7 86 21 86 5 0 9 -10 9 -22 0 -33 11 -68 20 -68 17 0 21 41 9
101 -10 50 -10 62 2 69 19 12 29 3 29 -28 0 -38 10 -50 45 -54 25 -2 31 -9 38
-40 15 -66 27 -41 27 56 0 52 3 101 6 110 9 24 24 19 24 -8 0 -39 11 -56 35
-56 20 0 24 6 27 38 l3 37 22 -40 22 -40 1 88 0 87 -154 0 c-84 0 -166 2 -182
4 -16 2 -56 1 -89 -3z"/>
<path d="M5042 9045 c5 -75 21 -101 44 -70 13 18 13 20 0 23 -31 7 -17 32 17
32 35 0 57 15 57 38 0 15 -35 13 -72 -2 -13 -6 -19 -2 -24 18 -12 51 -26 27
-22 -39z"/>
<path d="M4155 9049 c-9 -39 3 -141 16 -134 12 8 12 165 0 165 -5 0 -12 -14
-16 -31z"/>
<path d="M4760 8850 c0 -25 4 -30 25 -30 21 0 25 5 25 30 0 25 -4 30 -25 30
-21 0 -25 -5 -25 -30z"/>
</g>
</svg>
